<svg xmlns="http://www.w3.org/2000/svg" viewBox="0 0 500 500" width="500" height="500">
  <path id="Path_1" data-name="Path 1"
    d="M 500.19 460.505 C 500.196 482.081 482.704 499.573 461.128 499.567 L 39.253 499.567 C 17.677 499.573 0.185 482.081 0.19 460.505 L 0.19 38.63 C 0.184 17.054 17.677 -0.439 39.253 -0.433 L 461.128 -0.433 C 482.704 -0.439 500.196 17.054 500.19 38.63 Z"
    fill="#EC0C79" />
  <g transform="matrix(3.923914, 0, 0, 3.960577, 86.917587, 185.256027)" style="">
    <path fill-rule="evenodd" clip-rule="evenodd"
      d="M33.6559 16.5995C32.5398 16.5995 30.7317 17.277 30.6634 18.3541C30.6649 18.5106 30.7063 18.6641 30.7836 18.8002C30.8608 18.9363 30.9715 19.0504 31.1051 19.1319C31.2388 19.2133 31.3909 19.2594 31.5473 19.2657C31.7037 19.272 31.8591 19.2384 31.9989 19.168C32.4862 18.9633 32.9005 18.4077 33.5682 18.4077C33.7387 18.3888 33.9113 18.4042 34.0758 18.4527C34.2404 18.5013 34.3936 18.5822 34.5265 18.6906C34.6594 18.799 34.7694 18.9329 34.8501 19.0843C34.9307 19.2357 34.9804 19.4017 34.9962 19.5725C34.9962 19.8503 34.8354 19.7723 34.5673 19.7675C33.9691 19.7518 33.3705 19.7664 32.7738 19.8113C28.9674 20.3718 29.8203 24.5632 32.6568 24.5632C33.7729 24.5632 34.7866 24.4365 35.8296 24.4316C37.1504 24.4316 37.1211 23.6665 37.1211 22.6917V20.3474C37.1211 19.0218 36.9506 18.3443 36.239 17.6328C35.5441 16.9671 34.6182 16.5968 33.6559 16.5995V16.5995ZM33.8752 22.9354C33.1491 22.9354 32.3156 22.8282 32.3156 22.0679C32.3156 21.3076 33.1734 21.2491 33.9142 21.2491C35.235 21.2491 35.0108 20.8982 34.9962 22.7599C34.6504 22.9352 34.258 22.9966 33.8752 22.9354V22.9354ZM54.7835 19.7382C54.7828 19.5513 54.8211 19.3663 54.8959 19.1949C54.9707 19.0236 55.0804 18.8698 55.2179 18.7432C55.3555 18.6166 55.518 18.5201 55.6949 18.4598C55.8719 18.3996 56.0594 18.3768 56.2457 18.3931C57.3276 18.4321 57.8881 19.6602 57.5031 19.7334L54.7835 19.7382ZM54.7835 21.3417H57.3471C58.1562 21.3417 59.0676 21.4635 59.477 20.9567C59.8863 20.4498 59.7304 19.3581 59.5257 18.783C58.6338 16.3169 54.8372 15.7028 53.1898 18.1299C52.8048 18.722 52.6234 19.4236 52.6732 20.1281C52.5952 20.9154 52.6731 21.7103 52.9023 22.4675C53.6626 24.3634 56.1141 24.997 58.0977 24.2513C60.3494 23.4033 59.3015 21.5074 57.9369 22.2238C57.3599 22.6287 56.6521 22.8026 55.9532 22.7112C55.6216 22.6722 55.317 22.5095 55.1001 22.2556C54.8833 22.0017 54.7702 21.6753 54.7835 21.3417V21.3417ZM40.3427 20.2159C40.3427 19.1193 40.5474 18.5393 41.6878 18.5393C42.5212 18.5393 42.994 18.8415 43.0379 19.6944C43.0817 20.5473 43.0379 21.2978 43.0379 22.0386C43.0379 23.1596 42.8624 24.1928 43.7592 24.4755C43.9265 24.5343 44.106 24.5501 44.2811 24.5214C44.4561 24.4926 44.6211 24.4204 44.7609 24.3111C44.9007 24.2019 45.0108 24.0593 45.081 23.8964C45.1513 23.7335 45.1794 23.5555 45.1628 23.3789V20.0014C45.1628 18.0519 44.076 16.7896 42.1216 16.7896H41.2979C39.6945 16.7896 38.2567 17.623 38.2567 19.2606V23.5154C38.2567 24.8654 40.4402 24.8995 40.3573 23.3838C40.3134 22.5455 40.3573 21.1175 40.3573 20.2159H40.3427ZM49.208 18.7537C49.7587 18.7245 50.3972 18.7927 50.9333 18.7537C51.158 18.7329 51.3664 18.6276 51.5166 18.4592C51.6668 18.2908 51.7475 18.0717 51.7426 17.8461C51.7376 17.6205 51.6473 17.4052 51.4899 17.2435C51.3325 17.0818 51.1197 16.9858 50.8943 16.9748C50.3485 16.9456 49.7636 16.9748 49.2129 16.9748C49.1495 16.5264 49.4809 15.0253 48.1553 15.0253C46.8296 15.0253 47.0977 16.3071 47.0977 16.9261C46.7516 17.0138 46.4982 16.9602 46.2399 17.1503C46.1348 17.2367 46.0501 17.3453 45.992 17.4683C45.9339 17.5914 45.9037 17.7258 45.9037 17.8618C45.9037 17.9979 45.9339 18.1323 45.992 18.2553C46.0501 18.3784 46.1348 18.487 46.2399 18.5734C46.5518 18.8122 46.7906 18.6904 47.0489 18.7976C47.2049 19.0169 47.1172 19.6018 47.1172 19.9332C47.1172 21.1029 46.9905 22.3311 47.4973 23.1742C48.3502 24.5778 49.6125 24.4609 50.9967 24.4609C52.0543 24.4609 52.1907 23.6275 51.9714 23.1742C51.6546 22.5211 50.9382 22.6868 50.0901 22.6868C49.1446 22.6868 49.2226 22.024 49.2226 21.1662C49.2226 20.4157 49.1788 19.5238 49.2226 18.7879L49.208 18.7537ZM62.138 16.892C62.3597 16.8924 62.5757 16.9622 62.7557 17.0916C62.9357 17.2209 63.0708 17.4033 63.142 17.6133C63.2492 17.6669 63.3467 17.6133 63.4393 17.5012C63.9998 16.6824 65.5886 16.4923 66.1637 17.1162C66.2698 17.2321 66.3429 17.3743 66.3756 17.528C66.4082 17.6817 66.3993 17.8413 66.3496 17.9904C66.2999 18.1395 66.2113 18.2726 66.0929 18.3759C65.9746 18.4793 65.8308 18.5491 65.6763 18.5783C64.8917 18.744 64.2142 18.4077 63.6196 18.9584C63.4996 19.0559 63.4002 19.1764 63.3274 19.3128C63.2546 19.4492 63.2098 19.5989 63.1956 19.7528V23.4325C63.1943 23.7139 63.082 23.9834 62.883 24.1824C62.684 24.3814 62.4145 24.4937 62.1331 24.495V24.495C61.8517 24.4937 61.5822 24.3814 61.3833 24.1824C61.1843 23.9834 61.0719 23.7139 61.0707 23.4325V17.9642C61.0694 17.8232 61.096 17.6834 61.1491 17.5527C61.2022 17.4221 61.2806 17.3033 61.3798 17.2032C61.4791 17.103 61.5972 17.0235 61.7273 16.9693C61.8574 16.915 61.997 16.8871 62.138 16.8871V16.892Z"
      fill="#fff" />
    <path fill-rule="evenodd" clip-rule="evenodd"
      d="M69.9896 21.2882C70.3511 21.2586 70.7139 21.2488 71.0765 21.2589C71.3543 21.2589 71.4225 21.2004 71.4323 21.4734C71.4323 21.8779 71.5102 22.7746 71.3055 22.877C71.2422 22.9062 68.9369 23.2669 68.7761 22.2532C68.6153 21.2394 69.6192 21.3369 69.9896 21.2784V21.2882ZM71.3787 19.7529C70.6963 19.9284 68.625 19.3387 67.2847 20.6789C66.0517 21.9071 66.4903 24.7144 69.6436 24.5779C70.4185 24.5389 71.2227 24.4853 71.9879 24.461C72.3597 24.4958 72.7341 24.4337 73.0747 24.2806C73.2145 24.2003 73.3322 24.0866 73.4172 23.9497C73.5023 23.8127 73.5521 23.6569 73.5621 23.496C73.6254 22.7893 73.5621 21.7658 73.5621 21.025C73.5621 19.48 73.6693 18.2713 72.2462 17.3014C70.014 15.7711 67.1921 17.1796 67.1239 18.3737C67.123 18.5403 67.1675 18.704 67.2527 18.8473C67.3379 18.9905 67.4605 19.1077 67.6074 19.1864C67.7543 19.2651 67.9198 19.3023 68.0862 19.2939C68.2527 19.2855 68.4137 19.2319 68.5519 19.1388C69.0783 18.8415 69.4682 18.3298 70.3064 18.4565C70.6316 18.483 70.933 18.6372 71.1447 18.8854C71.3006 19.0601 71.4007 19.2773 71.4323 19.5092C71.4615 19.7724 71.3884 19.7773 71.3884 19.7773L71.3787 19.7529ZM81.5891 21.293C81.9472 21.261 82.3069 21.2512 82.6662 21.2638C82.9099 21.2638 83.0269 21.2102 83.0464 21.4344C83.0464 21.5708 83.0464 21.8048 83.0464 21.9559C83.0464 22.2532 83.1438 22.76 82.8953 22.877C82.8124 22.9111 80.5656 23.2669 80.3756 22.2483C80.1855 21.2297 81.3747 21.3223 81.5891 21.2735V21.293ZM83.0025 19.7676C81.1895 19.7676 79.8931 19.6701 78.8793 20.6838C78.6513 20.9168 78.4768 21.1966 78.3677 21.5039C78.2587 21.8111 78.2179 22.1384 78.248 22.463C78.2782 22.7875 78.3786 23.1017 78.5423 23.3836C78.706 23.6655 78.9291 23.9084 79.1961 24.0954C79.7947 24.5012 80.5209 24.6745 81.2382 24.5828C81.9985 24.5487 82.7978 24.4902 83.5776 24.461C84.0991 24.4366 85.1031 24.461 85.1421 23.4862C85.1762 22.6869 85.1421 21.8145 85.1421 21.0104C85.2132 20.2287 85.1489 19.4405 84.952 18.6807C84.2356 16.8189 81.9644 16.122 79.9028 17.0285C79.4496 17.2283 78.7477 17.7644 78.7087 18.359C78.7114 18.5231 78.7579 18.6834 78.8433 18.8235C78.9287 18.9636 79.05 19.0783 79.1945 19.1558C79.3391 19.2333 79.5018 19.2708 79.6657 19.2644C79.8297 19.258 79.9889 19.2079 80.127 19.1193C80.6436 18.8464 81.0286 18.3006 81.8815 18.4321C82.0447 18.4401 82.2044 18.4819 82.3505 18.5548C82.4966 18.6278 82.626 18.7302 82.7305 18.8558C82.8349 18.9813 82.9122 19.1272 82.9573 19.2841C83.0025 19.4411 83.0146 19.6057 82.9928 19.7676H83.0025ZM76.9883 25.3821C76.9217 25.8539 76.7236 26.2974 76.4168 26.662C76.11 27.0266 75.7068 27.2975 75.2533 27.4437C74.7659 27.6094 73.3038 27.8287 72.8993 27.3267C72.4947 26.8247 72.5532 25.811 73.8009 25.8159C74.5222 25.8159 74.8634 25.7379 74.9219 25.0361C75.034 23.7153 74.7805 18.169 74.9706 17.4769C75.0458 17.239 75.2034 17.0358 75.415 16.9037C75.6266 16.7716 75.8785 16.7194 76.1252 16.7564C76.3719 16.7934 76.5973 16.9172 76.7609 17.1056C76.9245 17.2939 77.0155 17.5345 77.0176 17.7839C77.0176 18.632 77.0955 24.69 76.9786 25.3821H76.9883ZM75.9843 13.5292H75.9405C75.6645 13.535 75.402 13.6494 75.2099 13.8476C75.0178 14.0458 74.9117 14.3118 74.9146 14.5878C74.9175 14.8638 75.0292 15.1275 75.2253 15.3216C75.4215 15.5158 75.6864 15.6247 75.9624 15.6247C76.2384 15.6247 76.5033 15.5158 76.6995 15.3216C76.8956 15.1275 77.0073 14.8638 77.0102 14.5878C77.0131 14.3118 76.907 14.0458 76.7149 13.8476C76.5228 13.6494 76.2603 13.535 75.9843 13.5292V13.5292Z"
      fill="#fff" />
    <path fill-rule="evenodd" clip-rule="evenodd"
      d="M10.9199 8.12914C8.8681 8.43132 7.11356 9.49866 5.40775 10.7561C1.61112 13.9045 -1.60555 8.63114 1.31382 6.11142C7.16717 1.61784 13.2106 0.34092 18.9616 4.01084C19.4051 4.31789 20.2678 4.854 20.6674 5.21953L13.9806 8.45568C12.9888 8.16147 11.9515 8.05081 10.9199 8.12914V8.12914Z"
      fill="#fff" />
    <path fill-rule="evenodd" clip-rule="evenodd"
      d="M20.6041 5.16097C23.2115 4.23983 25.4778 3.27483 28.1973 2.50966L27.286 1.34484C27.0081 0.964685 27.2372 0.857463 27.7733 0.930569L36.4291 2.3342C37.1796 2.48529 37.3258 2.76797 36.7507 3.44054L30.795 10.2102C30.5562 10.488 30.3077 10.4343 30.3077 9.85437L30.1761 8.4215C28.2266 8.90887 24.3276 10.3076 24.3276 10.3028L18.8203 12.7932C18.8203 12.7932 15.3063 14.6794 13.5713 15.6834C7.02097 19.4556 4.79855 25.694 9.18491 28.1211C13.0498 30.3533 19.2979 27.8092 20.3214 20.3231C20.6159 17.7146 20.0949 15.0789 18.83 12.7786L24.3276 10.2881C25.9801 13.7897 26.6538 17.6734 26.2771 21.527C24.8978 33.336 13.3568 37.5957 5.95362 33.4579C-1.92233 29.1202 -0.869602 18.8123 7.25491 12.5008C9.31162 11.0874 11.4008 9.78777 13.5225 8.60182L20.6041 5.19021V5.16097Z"
      fill="#fff" />
  </g>
</svg>
