<svg xmlns="http://www.w3.org/2000/svg" width="500" height="500">
  <g fill="none" fill-rule="evenodd">
    <rect width="500" height="500" fill="#EC3A43" rx="53" />
    <g fill-rule="nonzero">
      <path fill="#FFF"
        d="M125.3 206.9H57.7l-17 86.3h62.9c42.2-.7 49.8-24.6 52.7-56.5 2.9-32-31-29.8-31-29.8zm.3 35.6c-2.4 13.9-9.1 31.3-25.5 31.3H74.8l9.8-47.2H111c0 .1 16.9 2 14.6 15.9zm109.9-35.7h-68.7l-17.4 86.3h29.8l5.7-29.1h36.7c28.6 0 35.8-16.2 36.5-37.4.7-21.2-22.6-19.8-22.6-19.8zm-7 27.5c-2.1 8.8-4.8 12.2-16.2 12.2h-23.4l3.8-21.7h27.7s10.3.7 8.1 9.5z" />
      <path fill="#C7C9C8"
        d="M268.6 206.8h88l-4.3 18h-56.8l-3.8 17.7h52.7l-3.6 16.8h-53.4l-3.3 16h57l-3.1 17.9h-87.3l17.9-86.4zm123.5 0l10.2 23.7 20.8-23.7h36.2L415.7 250l26.9 43.2h-34.8L394 268.4l-23.1 24.8H338l43.8-43.2-25.2-43.2h35.5z" />
    </g>
  </g>
</svg>
