<svg xmlns="http://www.w3.org/2000/svg" width="500" height="500">
  <path data-name="Path 1"
    d="M500 460.938A39.052 39.052 0 01460.938 500H39.063A39.052 39.052 0 010 460.938V39.063A39.052 39.052 0 0139.063 0h421.875A39.052 39.052 0 01500 39.063z"
    fill="#f5f5f5" />
  <g data-name="Group 9">
    <g data-name="Group 6" fill="#ff1101">
      <path data-name="Path 32"
        d="M79.866 309.112h42.79l-3.727 13.761h-26.3l-1.362 5.089h13.474l-3.225 12.113H88.037l-1.5 5.447H113.2l-3.656 13.761H66.391z" />
      <path data-name="Path 33"
        d="M138.357 332.908l-10.107-23.8h18.134l4.659 12.19 10.823-12.184h19.424l-22.936 24.512 10.966 25.66h-18.133l-5.375-14.192-12.688 14.192h-19.423z" />
      <path data-name="Path 34"
        d="M187.244 309.112h16.844c9.245 0 14.908 1.792 18.635 5.519a13.887 13.887 0 013.942 10.106c0 12.543-9.46 20.929-25.373 20.929h-7.1l-3.655 13.618h-16.768zm13.189 24.586c6.378 0 9.317-2.867 9.317-6.666a4.183 4.183 0 00-1.219-2.939c-1.147-1.147-3.153-1.577-5.018-1.577h-3.153l-2.939 11.182z" />
      <path data-name="Path 35"
        d="M238.495 309.112h19.567c9.247 0 15.123 2.006 18.493 5.375a14.372 14.372 0 013.941 10.465c0 7.813-4.084 14.55-13.975 17.632l6.953 16.7H255.41l-5.591-14.335h-4.156l-3.871 14.335H225.02zm16.414 23.868c5.591 0 8.529-2.581 8.529-5.734a3.684 3.684 0 00-1.075-2.653c-.932-.932-2.581-1.433-4.946-1.433h-5.949l-2.652 9.82z" />
      <path data-name="Path 36"
        d="M293.188 309.112h42.79l-3.727 13.761h-26.3l-1.363 5.089h13.474l-3.224 12.113h-13.479l-1.5 5.447h26.663l-3.656 13.762h-43.152z" />
      <path data-name="Path 37"
        d="M331.468 351.184l9.6-11.468c5.734 4.8 11.61 7.1 16.914 7.1 2.151 0 3.657-.788 3.657-2.222 0-1.577-.933-2.079-8.244-4.8-9.317-3.441-13.69-6.738-13.69-14.12 0-9.676 8.888-17.561 22.578-17.561 8.96 0 16.916 2.867 22.363 7.526l-9.602 11.464c-3.8-3.081-9.175-5.59-14.478-5.59-2.151 0-3.656.573-3.656 2.006 0 1.5 1.075 1.792 8.028 4.372 8.53 3.154 13.977 6.738 13.977 14.407 0 10.106-8.315 17.991-22.721 17.991a36.657 36.657 0 01-24.726-9.105z" />
      <path data-name="Path 38"
        d="M381.859 351.184l9.6-11.468c5.734 4.8 11.611 7.1 16.914 7.1 2.151 0 3.656-.788 3.656-2.222 0-1.577-.933-2.079-8.244-4.8-9.317-3.441-13.69-6.738-13.69-14.12 0-9.676 8.889-17.561 22.578-17.561 8.961 0 16.916 2.867 22.364 7.526l-9.602 11.464c-3.8-3.081-9.174-5.59-14.478-5.59-2.151 0-3.657.573-3.657 2.006 0 1.5 1.075 1.792 8.028 4.372 8.53 3.154 13.978 6.738 13.978 14.407 0 10.106-8.316 17.991-22.722 17.991a36.657 36.657 0 01-24.725-9.105z" />
    </g>
    <g data-name="Group 7" transform="translate(120.268 112)" fill="#ff1101">
      <path data-name="Path 39"
        d="M243.079 32.206c-12.423-12.424-32.348-21.1-64.227-21.1h-58.133L108.03 58.928h63.791c13.127 0 21.33 3.047 26.488 8.205 4.218 4.218 6.8 10.08 6.8 18.984 0 10.08-4.922 21.1-11.719 27.9-8.439 8.437-22.74 13.359-39.381 13.359h-9.613l5.738-22.743 6.072-22.959H25.046L0 175.198h53.211l18.9-70.564h23.375l-18.832 70.564h71.26c37.976 0 66.337-10.548 86.029-30.24A90.036 90.036 0 00260.9 80.263c-.003-19.926-5.629-35.868-17.821-48.057z" />
      <ellipse data-name="Ellipse 2" cx="30.725" cy="23.652" rx="30.725" ry="23.652"
        transform="rotate(-41.27 66.383 -13.22)" />
    </g>
    <g data-name="Group 8" stroke="#000" stroke-miterlimit="10" stroke-width=".25">
      <path data-name="Path 40" d="M56 375.658h2.1l6.9 8.9v-8.9h2.227v12.879h-1.896l-7.1-9.162v9.162h-2.226z" />
      <path data-name="Path 41"
        d="M78.786 375.567h2.1l5.667 12.97h-2.392l-1.306-3.109h-6.09l-1.324 3.109h-2.319zm3.239 7.855l-2.227-5.152-2.208 5.152z" />
      <path data-name="Path 42" d="M89.502 375.658h2.5l3.882 9.9 3.863-9.9h2.447l-5.336 12.97h-2.005z" />
      <path data-name="Path 43" d="M108.223 375.658h2.263v12.879h-2.263z" />
      <path data-name="Path 44"
        d="M117.042 382.135v-.036a6.561 6.561 0 016.641-6.661 6.958 6.958 0 014.949 1.746l-1.435 1.713a5.042 5.042 0 00-3.606-1.38 4.354 4.354 0 00-4.176 4.544v.038a4.3 4.3 0 004.379 4.6 5.252 5.252 0 003.108-.976v-2.41h-3.293v-1.966h5.483v5.41a8.216 8.216 0 01-5.372 2 6.389 6.389 0 01-6.678-6.622z" />
      <path data-name="Path 45"
        d="M140.286 375.567h2.1l5.667 12.97h-2.393l-1.306-3.109h-6.089l-1.325 3.109h-2.319zm3.238 7.855l-2.226-5.152-2.208 5.152z" />
      <path data-name="Path 46" d="M155.457 377.756h-4.085v-2.1h10.45v2.1h-4.084v10.781h-2.281z" />
      <path data-name="Path 47"
        d="M167.899 375.658h9.549v2.022h-7.285v3.348h6.458v2.024h-6.458v3.459h7.373v2.023h-9.642z" />
      <path data-name="Path 48"
        d="M197.682 375.567h2.1l5.667 12.97h-2.393l-1.306-3.109h-6.089l-1.325 3.109h-2.319zm3.238 7.855l-2.226-5.152-2.208 5.152z" />
      <path data-name="Path 49"
        d="M211.338 375.658h4.8c4.047 0 6.843 2.779 6.843 6.4v.038c0 3.623-2.8 6.438-6.843 6.438h-4.8zm2.263 2.062v8.76h2.54a4.2 4.2 0 004.47-4.341v-.036a4.226 4.226 0 00-4.47-4.379z" />
      <path data-name="Path 50" d="M227.486 375.658h2.5l3.881 9.9 3.863-9.9h2.447l-5.334 12.97h-2.006z" />
      <path data-name="Path 51"
        d="M248.8 375.567h2.1l5.667 12.97h-2.392l-1.306-3.109h-6.089l-1.324 3.109h-2.319zm3.239 7.855l-2.227-5.152-2.208 5.152z" />
      <path data-name="Path 52" d="M262.461 375.658h2.1l6.9 8.9v-8.9h2.226v12.879h-1.894l-7.1-9.162v9.162h-2.226z" />
      <path data-name="Path 53"
        d="M280.115 382.135v-.036a6.517 6.517 0 016.641-6.661 6.715 6.715 0 015.041 2l-1.452 1.679a5.121 5.121 0 00-3.606-1.6 4.333 4.333 0 00-4.25 4.544v.038a4.338 4.338 0 004.25 4.561 5.03 5.03 0 003.7-1.655l1.455 1.471a6.644 6.644 0 01-5.225 2.281 6.475 6.475 0 01-6.554-6.622z" />
      <path data-name="Path 54"
        d="M297.95 375.658h9.548v2.022h-7.285v3.348h6.458v2.024h-6.458v3.459h7.378v2.023h-9.641z" />
      <path data-name="Path 55"
        d="M323.165 375.658h4.8c4.047 0 6.843 2.779 6.843 6.4v.038c0 3.623-2.8 6.438-6.843 6.438h-4.8zm2.263 2.062v8.76h2.539a4.2 4.2 0 004.47-4.341v-.036a4.226 4.226 0 00-4.47-4.379z" />
      <path data-name="Path 56"
        d="M341.245 375.658h9.549v2.022h-7.286v3.348h6.458v2.024h-6.458v3.459h7.379v2.023h-9.642z" />
      <path data-name="Path 57" d="M357.259 375.658h2.263v10.822h6.77v2.061h-9.033z" />
      <path data-name="Path 58" d="M372.463 375.658h2.264v12.879h-2.264z" />
      <path data-name="Path 59" d="M380.748 375.658h2.5l3.881 9.9 3.864-9.9h2.447l-5.336 12.97h-2.006z" />
      <path data-name="Path 60"
        d="M399.338 375.658h9.549v2.022h-7.285v3.348h6.458v2.024h-6.458v3.459h7.378v2.023h-9.642z" />
      <path data-name="Path 61"
        d="M415.354 375.658h5.741a5.183 5.183 0 013.716 1.289 3.893 3.893 0 011.067 2.777v.038a3.864 3.864 0 01-3.054 3.9l3.478 4.876h-2.686l-3.165-4.489h-2.832v4.489h-2.264zm5.576 6.384c1.618 0 2.648-.846 2.648-2.152v-.038c0-1.38-.993-2.133-2.668-2.133h-3.292v4.323z" />
      <path data-name="Path 62"
        d="M435.675 383.458l-5.114-7.8h2.685l3.588 5.685 3.643-5.685h2.593l-5.114 7.747v5.132h-2.282z" />
    </g>
  </g>
</svg>
