<svg xmlns="http://www.w3.org/2000/svg" width="500" height="500">
  <g fill="none" fill-rule="evenodd">
    <rect width="500" height="500" fill="#313B97" rx="53" />
    <path fill="#EC2C25" fill-rule="nonzero"
      d="M158.154 258.358l-1.55 7.22c4.477-.6 8.868-1.203 13.345-1.804l5.166-24.843a798.468 798.468 0 0 0-13.603 3.697l-3.358 15.73zM26 293c13.947-4.126 28.067-7.908 42.444-11.26l1.894-8.769c-1.033.43-2.066.774-3.099 1.204C53.292 279.762 39.172 285.693 26 293zm248.381-68.424l1.636-7.736c-1.722.257-3.444.601-5.166.945l3.53 6.79zM462.497 203c-24.193 0-48.3.516-72.32 1.72-16.96.859-33.834 2.062-50.709 3.781-4.046.43-8.093.86-12.053 1.29l-8.782 41.175c4.047-.172 8.093-.43 12.226-.602a1206.072 1206.072 0 0 1 49.934-1.29h11.02c11.795.086 45.372 0 71.717-.085h.344L473 203h-10.503zm-241.752 55.1c6.715-.601 13.344-1.203 20.06-1.805l-14.12-26.304-5.94 28.11z" />
    <path
      d="M110.494 314.33c-.342-.165-1.197-.33-2.478-.33h-2.82L104 322h1.196c2.05 0 3.503-.165 4.187-.577.683-.413 1.282-.99 1.623-1.815.428-.824.598-1.732.598-2.721 0-.66-.085-1.238-.341-1.65-.086-.412-.342-.66-.77-.907zm17.26-.248h-4.444l-1.11 7.506h2.135c2.137 0 3.59-.165 4.358-.578.684-.33 1.282-.907 1.709-1.732.427-.824.598-1.65.598-2.474 0-.99-.256-1.814-.854-2.31-.428-.247-1.197-.412-2.393-.412z" />
    <path fill="#FFF" fill-rule="nonzero"
      d="M64.676 325.261h10.147l.688-4.931H65.45l.945-6.782h10.406l.688-5.02H63.042L59 338.295h15.135l.688-4.931H63.558l1.118-8.103zm35.257-16.733h-5.074l-3.01 5.196c-.687 1.233-1.633 2.907-2.665 4.844-.086-.264-.086-.44-.172-.528-.774-2.466-1.29-3.787-1.29-4.051l-1.892-5.46h-4.214l4.902 14.795-8.6 14.971h5.246l2.666-4.491c1.376-2.378 2.322-3.963 2.666-4.756.258.969.774 2.642 1.548 4.932l1.462 4.315h4.557l-4.815-14.09 8.685-15.677zm14.103.793c-.774-.528-1.892-.793-3.354-.793h-7.911l-4.042 29.767h4.042l1.548-11.272h2.58c1.72 0 2.923-.088 3.525-.176 1.118-.265 1.892-.529 2.58-.97.602-.44 1.204-1.056 1.806-1.937a12.785 12.785 0 0 0 1.376-3.434c.344-1.41.602-2.907.602-4.404 0-1.673-.258-2.994-.688-4.227-.602-1.233-1.204-2.026-2.064-2.554zm-1.978 10.216c-.43.88-.946 1.497-1.634 1.937-.688.44-2.064.617-4.214.617h-1.203l1.203-8.543h2.838c1.29 0 2.15.088 2.494.353.344.176.688.528.86.968a4.89 4.89 0 0 1 .344 1.762c-.086 1.057-.258 2.025-.688 2.906zm21.068-10.304c-.86-.44-1.977-.705-3.525-.705h-8.686l-4.041 29.767h4.041l1.72-12.33h1.634c.946 0 1.634.177 1.978.617.602.705 1.204 1.938 1.806 3.875 1.032 3.523 1.72 6.165 2.064 7.838h4.3c-1.119-4.227-2.065-7.573-3.01-9.863-.43-1.145-.946-2.114-1.462-2.818 1.977-.353 3.525-1.41 4.471-3.083 1.032-1.673 1.462-3.699 1.462-6.253 0-1.761-.258-3.258-.774-4.491-.43-1.233-1.118-2.026-1.978-2.554zm-1.72 9.864c-.43.88-.945 1.497-1.72 1.849-.687.352-2.15.616-4.385.616h-2.15l1.118-8.014h4.472c1.204 0 1.978.176 2.322.529.601.528.86 1.32.86 2.466.085.792-.087 1.673-.516 2.554zm6.02 19.198h15.135l.688-4.931h-11.265l1.118-8.103h10.147l.688-4.931h-10.061l.945-6.782h10.406l.688-5.02h-14.447l-4.042 29.767zm27.948-25.451c1.118 0 1.978.352 2.58 1.145.43.616.774 1.409.946 2.466h3.87c-.173-2.466-.86-4.492-2.064-5.99-1.29-1.672-3.01-2.465-5.332-2.465-2.236 0-3.956.793-5.16 2.466-1.204 1.673-1.806 3.787-1.806 6.253 0 1.409.172 2.73.602 3.787.43 1.056.946 1.937 1.634 2.642.688.704 1.806 1.497 3.354 2.554 1.548.968 2.494 1.761 2.838 2.201.258.353.516.793.602 1.233.086.265.086.617.086.97 0 1.056-.258 1.849-.86 2.641-.602.705-1.548 1.057-2.924 1.057-1.634 0-2.666-.528-3.268-1.585-.344-.529-.516-1.585-.602-3.083H156c0 1.85.259 3.435.689 4.932.516 1.497 1.375 2.73 2.58 3.611 1.203.88 2.665 1.321 4.385 1.321 2.408 0 4.3-.969 5.676-2.818 1.376-1.85 2.063-4.14 2.063-6.781v-.265c0-2.025-.515-3.698-1.375-5.02-.602-.88-2.064-2.113-4.3-3.61-1.462-.97-2.494-1.762-2.924-2.378-.43-.529-.688-1.233-.688-2.114 0-.88.258-1.673.688-2.29.688-.528 1.462-.88 2.58-.88zm22.96 11.272c-.602-.88-2.064-2.113-4.3-3.61-1.461-.97-2.493-1.762-2.923-2.378-.344-.44-.602-1.057-.602-1.673v-.44c0-.881.258-1.674.688-2.29.516-.617 1.29-.881 2.408-.881 1.117 0 1.977.352 2.58 1.145.43.616.773 1.409.945 2.466H191c-.172-2.466-.86-4.492-2.064-5.99-1.29-1.672-3.01-2.465-5.331-2.465-2.236 0-3.956.793-5.16 2.466-1.118 1.585-1.72 3.61-1.806 5.989v.264c0 1.409.172 2.73.602 3.787.43 1.056.946 1.937 1.634 2.642.688.704 1.806 1.497 3.354 2.554 1.548.968 2.493 1.761 2.837 2.201.258.353.516.793.602 1.233.086.265.086.617.086.97 0 1.056-.258 1.849-.86 2.641-.601.705-1.547 1.057-2.923 1.057-1.634 0-2.666-.528-3.268-1.585-.344-.529-.516-1.585-.602-3.083h-3.87c0 1.85.258 3.435.688 4.932.516 1.497 1.376 2.73 2.58 3.611 1.204.88 2.666 1.321 4.386 1.321 2.408 0 4.3-.969 5.675-2.818 1.376-1.85 2.064-4.14 2.064-6.781v-.265c0-2.025-.43-3.698-1.29-5.02z" />
    <path
      d="M349.761 326.6h5.511l-1.205-11.797-4.306 11.797zm49.514-13.433c-1.98 0-3.617 1.377-4.822 4.133a22.354 22.354 0 0 0-1.895 9.042c0 1.98.43 3.702 1.206 5.08.861 1.378 1.894 2.067 3.272 2.067 1.12 0 2.153-.517 3.186-1.636 1.034-1.034 1.809-2.67 2.497-4.822.69-2.153.948-4.306.948-6.373 0-2.325-.43-4.133-1.206-5.425-.861-1.377-1.98-2.066-3.186-2.066z" />
    <path fill="#FFF" fill-rule="nonzero"
      d="M337.447 308.689l-2.755 19.547-5.34-19.547h-3.702l-4.133 29.105h3.789l2.755-19.547 5.339 19.547h3.703l4.133-29.105h-3.789zm14.122 0l-11.022 29.105h4.22l2.325-6.458h7.75l.602 6.458h3.79l-3.187-29.105h-4.478zM348.9 326.6l4.306-11.711 1.205 11.711H348.9zm28.933-17.911h-15.327l-.69 4.908h5.77l-3.444 24.197h4.047l3.358-24.197h5.684l.602-4.908zm.086 29.105h4.048l4.047-29.105h-4.047l-4.048 29.105zm20.753-29.622c-1.808 0-3.444.517-4.822 1.636-1.378 1.12-2.583 2.584-3.53 4.478-.948 1.895-1.637 4.133-2.067 6.63-.345 1.895-.517 3.703-.517 5.426 0 1.894.258 3.702.775 5.51.517 1.81 1.378 3.36 2.583 4.565 1.206 1.205 2.756 1.808 4.564 1.808 2.067 0 3.961-.775 5.598-2.325 1.636-1.55 2.927-3.789 3.96-6.63a28.29 28.29 0 0 0 1.465-8.956c0-3.703-.775-6.717-2.24-8.956-1.463-2.066-3.358-3.186-5.769-3.186zm3.1 18.772c-.689 2.153-1.464 3.79-2.497 4.823-1.033 1.033-2.067 1.636-3.186 1.636-1.378 0-2.411-.69-3.272-2.067-.861-1.378-1.206-3.014-1.206-5.08 0-3.273.603-6.287 1.895-9.042 1.205-2.756 2.841-4.133 4.822-4.133 1.291 0 2.325.688 3.186 1.98.861 1.292 1.205 3.1 1.205 5.425.087 2.153-.258 4.22-.947 6.458zm19.117 1.292l-5.339-19.547h-3.703l-4.133 29.105h3.789l2.755-19.547 5.34 19.547h3.702l4.133-29.105h-3.702l-2.842 19.547zm21.183-4.305c-.603-.862-2.066-2.067-4.305-3.531-1.464-.947-2.498-1.722-2.928-2.325-.345-.43-.603-1.033-.603-1.636v-.43c0-.862.258-1.637.689-2.24.517-.602 1.292-.86 2.411-.86 1.12 0 1.98.344 2.583 1.119.431.603.775 1.378.948 2.41h3.875c-.173-2.41-.861-4.39-2.067-5.855-1.292-1.636-3.014-2.41-5.339-2.41-2.239 0-3.961.774-5.167 2.41-1.119 1.55-1.722 3.53-1.808 5.856v.258c0 1.378.172 2.67.603 3.703.43 1.033.947 1.894 1.636 2.583.689.69 1.808 1.464 3.358 2.498 1.55.947 2.498 1.722 2.842 2.152.258.345.517.775.603 1.206.086.258.086.603.086.947 0 1.033-.258 1.808-.861 2.583-.603.69-1.55 1.034-2.928 1.034-1.636 0-2.67-.517-3.272-1.55-.345-.517-.517-1.55-.603-3.014h-3.875c0 1.808.258 3.358.689 4.822.517 1.464 1.378 2.67 2.583 3.53 1.206.862 2.67 1.292 4.392 1.292 2.411 0 4.305-.947 5.683-2.755 1.378-1.809 2.067-4.047 2.067-6.63v-.26c0-1.98-.43-3.616-1.292-4.907z" />
    <path
      d="M268.953 313.167c-1.98 0-3.617 1.377-4.823 4.133a22.35 22.35 0 0 0-1.895 9.042c0 1.98.43 3.702 1.206 5.08.861 1.378 1.895 2.067 3.273 2.067 1.12 0 2.153-.517 3.187-1.636 1.033-1.034 1.808-2.67 2.498-4.822.689-2.153.947-4.306.947-6.373 0-2.325-.43-4.133-1.206-5.425-.775-1.377-1.895-2.066-3.187-2.066zM204.872 326.6h5.512l-1.12-11.797-4.392 11.797zm44.53-13.003h-4.48l-1.12 7.836h2.154c2.153 0 3.618-.172 4.393-.602.689-.345 1.292-.948 1.723-1.809.43-.86.602-1.722.602-2.583 0-1.033-.258-1.895-.86-2.411-.432-.259-1.207-.43-2.413-.43z" />
    <path fill="#FFF" fill-rule="nonzero"
      d="M207.628 308.689l-11.025 29.105h4.22l2.326-6.458h7.752l.603 6.458h3.79l-3.187-29.105h-4.48zm-2.756 17.911l4.306-11.711 1.206 11.711h-5.512zm25.064 5.253c-.862 1.033-1.809 1.464-2.843 1.464-1.12 0-2.067-.603-2.842-1.895-.775-1.291-1.12-3.1-1.12-5.425 0-2.153.259-4.305.862-6.458.603-2.153 1.378-3.703 2.325-4.736.948-1.034 1.981-1.55 3.101-1.55 1.034 0 1.809.344 2.412 1.12.516.602.861 1.55 1.12 2.84h3.961c-.258-2.755-1.033-4.994-2.239-6.63-1.292-1.722-3.015-2.497-5.168-2.497-1.895 0-3.617.689-5.254 2.153-1.636 1.464-2.842 3.53-3.79 6.286a30.299 30.299 0 0 0-1.378 9.128c0 4.047.69 7.233 1.981 9.386 1.378 2.153 3.187 3.186 5.599 3.186 2.153 0 3.962-.861 5.512-2.583 1.55-1.723 2.756-4.22 3.532-7.492l-.431-.086h-3.79c-.258 1.722-.775 2.928-1.55 3.789zm23.858-22.475c-.861-.43-1.98-.69-3.531-.69h-8.7l-4.048 29.106h4.049l1.722-12.055h1.637c.947 0 1.636.172 1.98.603.604.689 1.206 1.894 1.81 3.789 1.033 3.444 1.722 6.027 2.067 7.663h4.306c-1.12-4.133-2.067-7.405-3.014-9.644-.431-1.12-.948-2.067-1.465-2.756 1.981-.344 3.532-1.377 4.48-3.013 1.033-1.637 1.463-3.617 1.463-6.114 0-1.723-.258-3.186-.775-4.392-.517-1.206-1.206-1.98-1.98-2.497zm-1.809 9.644c-.43.861-.947 1.464-1.722 1.809-.69.344-2.154.602-4.393.602h-2.067l1.12-7.836h4.478c1.206 0 1.981.172 2.326.517.603.517.861 1.292.861 2.411a5.58 5.58 0 0 1-.603 2.497zm17.313-10.85c-1.809 0-3.445.517-4.824 1.636-1.378 1.12-2.583 2.584-3.53 4.478-.948 1.895-1.637 4.133-2.068 6.63-.345 1.895-.517 3.703-.517 5.426 0 1.894.259 3.702.775 5.51.517 1.81 1.378 3.36 2.584 4.565 1.206 1.205 2.756 1.808 4.565 1.808 2.067 0 3.962-.775 5.599-2.325 1.636-1.55 2.928-3.789 3.962-6.63a28.284 28.284 0 0 0 1.464-8.956c0-3.703-.775-6.717-2.24-8.956-1.464-2.066-3.359-3.186-5.77-3.186zm3.1 18.772c-.689 2.153-1.464 3.79-2.497 4.823-1.034 1.033-2.067 1.636-3.187 1.636-1.378 0-2.412-.69-3.273-2.067-.861-1.378-1.206-3.014-1.206-5.08 0-3.273.603-6.287 1.895-9.042 1.206-2.756 2.842-4.133 4.823-4.133 1.292 0 2.326.688 3.187 1.98.861 1.292 1.206 3.1 1.206 5.425.086 2.153-.258 4.22-.947 6.458zm15.849-14.036c1.12 0 1.98.345 2.584 1.12.43.603.775 1.378.947 2.41h3.876c-.172-2.41-.861-4.39-2.067-5.855-1.292-1.636-3.015-2.41-5.34-2.41-2.24 0-3.962.774-5.168 2.41-1.12 1.55-1.723 3.53-1.809 5.856v.258c0 1.378.172 2.67.603 3.703.43 1.033.947 1.894 1.636 2.583.69.69 1.81 1.464 3.36 2.498 1.55.947 2.497 1.722 2.842 2.152.258.345.517.775.603 1.206.086.258.086.603.086.947 0 1.033-.258 1.808-.861 2.583-.603.69-1.55 1.034-2.929 1.034-1.636 0-2.67-.517-3.273-1.55-.344-.517-.517-1.55-.603-3.014h-3.876c0 1.808.259 3.358.69 4.822.516 1.464 1.378 2.67 2.583 3.53 1.206.862 2.67 1.292 4.393 1.292 2.412 0 4.307-.947 5.685-2.755 1.378-1.809 2.067-4.047 2.067-6.63v-.26c0-1.98-.517-3.616-1.378-4.907-.603-.862-2.067-2.067-4.307-3.531-1.464-.947-2.498-1.722-2.928-2.325-.345-.43-.603-1.033-.603-1.636v-.43c0-.862.258-1.637.689-2.24.517-.516 1.292-.86 2.498-.86zm22.91 11.023c-.602-.862-2.066-2.067-4.306-3.531-1.464-.947-2.498-1.722-2.928-2.325-.345-.43-.603-1.033-.603-1.636v-.43c0-.862.258-1.637.689-2.24.517-.602 1.292-.86 2.411-.86 1.12 0 1.981.344 2.584 1.119.431.603.776 1.378.948 2.41h3.876c-.173-2.41-.862-4.39-2.067-5.855-1.292-1.636-3.015-2.41-5.34-2.41-2.24 0-3.963.774-5.168 2.41-1.12 1.55-1.723 3.53-1.81 5.856v.258c0 1.378.173 2.67.604 3.703.43 1.033.947 1.894 1.636 2.583.69.69 1.809 1.464 3.36 2.498 1.55.947 2.497 1.722 2.842 2.152.258.345.516.775.603 1.206.086.258.086.603.086.947 0 1.033-.259 1.808-.862 2.583-.603.69-1.55 1.034-2.928 1.034-1.637 0-2.67-.517-3.273-1.55-.345-.517-.517-1.55-.603-3.014h-3.876c0 1.808.259 3.358.69 4.822.516 1.464 1.377 2.67 2.583 3.53 1.206.862 2.67 1.292 4.393 1.292 2.411 0 4.306-.947 5.684-2.755 1.379-1.809 2.068-4.047 2.068-6.63v-.26c0-1.98-.431-3.616-1.292-4.907zM381.394 248.742c-16.658.086-33.403.602-50.062 1.291l-8.804 42.795H424.81l6.905-33.495H379.15l2.244-10.591zm-252.73-87.656v.172c0 .086 0 .173-.086.259-.086.258-.086.602-.259 1.033-.172.775-.345 1.808-.604 3.1-2.59 12.399-9.667 46.669-13.206 63.804a68.194 68.194 0 0 1-.518 2.583v-.172c0 .086 0 .172-.086.258v.086c-.26 1.206-.518 2.325-.69 3.272 0 .173-.087.345-.087.517 0 .172-.086.344-.086.517-.087.344-.173.602-.173.947v.172c-.086.43-.173.775-.173 1.033-.086.517-.172.775-.172.947-1.468 7.147-3.626 12.055-11.221 13.95H74.459l-4.23 19.115-1.898 8.783-.95 4.65-1.208 5.683-.173.688h.086L66 293h31.246v-.086h20.716c.345-.086.604-.086.949-.172 20.975-3.272 32.886-13.95 37.374-25.057l.518-2.325 1.554-7.233 3.366-15.757 17.263-81.198h-50.321v-.086zm271.374 0h-50.321l-9.754 46.928c16.918-1.636 33.836-2.928 50.84-3.789l1.985-9.472h52.22L452 161l-51.962.086zm-61.887 0h-50.322l-11.393 55.452-1.64 7.75-3.626-6.803-29.606-55.968-.172-.345h-50.063l-16.054 77.495-5.18 24.885-6.041 29.362h49.458l7.423-34.959 5.956-28.157 14.156 26.349 19.507 36.422.172.345h49.2l8.977-42.192 8.804-41.245 10.444-48.39z" />
  </g>
</svg>
