<svg xmlns="http://www.w3.org/2000/svg" width="500" height="500">
  <g fill="none" fill-rule="evenodd">
    <rect width="500" height="500" fill="#EC1C24" rx="53" />
    <g fill="#FFF">
      <path
        d="M173 181.345c-27.93-.172-41.81-.345-41.81-.345-15.786 74.248-23.593 111.373-23.593 111.373-20.47-.346-40.941-.864-61.586-1.209C37.337 310.504 33 320 33 320c35.564-.345 70.954-.345 106.518 0C161.724 227.448 173 181.345 173 181.345zM264.49 214.886C277.295 192.238 283.698 181 283.698 181c-59.18.173-88.77.346-88.77.346-7.614 17.634-4.153 36.133 10.729 55.323-67.14 43.74-26.822 107.88 59.18 73.477 5.71 6.57 8.652 9.854 8.652 9.854A642.698 642.698 0 0 1 310 320a12403.77 12403.77 0 0 0-25.61-29.91c9.863-9.508 15.055-22.647 15.4-39.244-17.476-5.187-26.301-7.607-26.301-7.607.865 10.2-1.558 18.499-7.268 24.895-28.206-23.166-41.703-40.8-40.146-52.73 2.423-11.41 9.345-17.98 20.592-19.882 13.324-.172 19.208 6.224 17.823 19.364zm-41.53 40.628c18.17 21.437 28.38 33.367 28.38 33.367-29.071 27.143-69.217-6.57-28.38-33.367z" />
      <path
        d="M302.738 181H466l-5.552 9.67h-42.507l-2.776 4.834h38.517l-6.593 6.562-38.344-.173-3.469 6.044h36.087l-11.277 11.223h-45.804L360.166 320h-39.558l25.504-102.739H284z" />
    </g>
  </g>
</svg>
