<svg xmlns="http://www.w3.org/2000/svg" id="https___assets.aftership.com_couriers_svg_jx.svg-0" width="500" height="500"
  viewBox="0 0 500 500">
  <path id="Path_1" data-name="Path 1"
    d="M500,460.938A39.052,39.052,0,0,1,460.938,500H39.063A39.052,39.052,0,0,1,0,460.938V39.063A39.052,39.052,0,0,1,39.063,0H460.938A39.052,39.052,0,0,1,500,39.063Z"
    fill="#d82427" />
  <path id="Path_2" data-name="Path 2"
    d="M106.7,345.486c1.4-11.72,2.7-23.151,4.1-34.583.3-2.306,1.4-3.458,4.2-3.458,8.6-.1,17.2-.576,25.8-.865,8.3-.384,17.1-9.895,19-19.693,4.7-23.055,9.7-46.015,14.6-68.974,1.8-8.454,3.6-16.907,5.3-25.361a12.121,12.121,0,0,0-.1-2.69c-7.8-.48-15.3-1.057-22.9-1.441-6.3-.288-7.2-1.153-6-6.917,2.1-9.991,4.2-19.981,6.4-30.548h63.6c6,0,7.6,1.345,7,7.493a166.187,166.187,0,0,1-3.2,17.1c-4.5,21.614-9,43.229-13.8,64.843-4.8,21.422-8.5,43.133-15.2,63.979-7.1,21.9-24,35.544-48,39.675a205.936,205.936,0,0,1-24.4,2.786c-4.9.192-9.8-.769-16.4-1.345Zm279.9-194.53c-1.7,5.091-2.5,9.606-4.6,13.545-12.9,24.881-26.2,49.473-38.9,74.45-1.6,3.266-1.1,8.069-.2,11.816,6.1,27.186,12.5,54.276,18.8,81.462.7,2.882,1.5,5.764,2.3,8.55,1.3,4.707-3.1,5.668-5.6,5.764a230.948,230.948,0,0,1-29.4,0c-6.1-.48-6.2-6.725-7.2-11.047-3.7-16.331-7-32.758-10.6-49.089-2.6-11.624-5.7-23.151-8.3-34.679a11.066,11.066,0,0,1,.9-6.436c9.9-20.942,20-41.884,30-62.826,4.2-8.934,7.7-18.252,12.5-26.994,1.4-2.5,6.2-4.227,9.6-4.419,9.6-.48,19.5-.1,30.7-.1ZM206.8,347.5c1.3-3.458,2-6.436,3.4-9.222q15.3-30.116,30.7-60.04c4-7.781,7.4-15.851,12.2-23.055,4.5-6.725,3.7-13.257,2.4-20.174q-5.4-29.828-10.8-59.752c-1.1-6.052-2-12.1-3.2-18.06-.9-4.707.2-6.34,5.3-6.34,8.2,0,16.3.384,24.5-.192,5.1-.288,7.4,2.209,8.4,6.052,1.7,6.532,2.9,13.161,4.1,19.789,2.7,14.986,5.2,29.972,7.8,44.958,1.1,6.628,2.5,13.257,3.1,19.981a17.771,17.771,0,0,1-1.9,9.03c-10.9,23.248-22,46.5-33,69.743-2.8,5.86-5.6,11.624-8.1,17.58a14.721,14.721,0,0,1-11.5,9.222,84.7,84.7,0,0,1-33.4.48ZM403.6,103.6c-17.6-.192-26.9,3.843-39.6,9.318.6.576,1,1.345,1.7,1.729,11.8,7.493,23.7,15.082,35.6,22.383a5.957,5.957,0,0,0,4.8.1c5.2-2.4,10.1-5.091,15.2-7.685,17.3-8.934,35.6-16.907,52.9-25.937Zm21.4,73.97a45.68,45.68,0,0,1-20.2,15.178l1.9-35.736c.4-3.746.5-7.589,1.1-11.336a4.534,4.534,0,0,1,2.3-2.594c16.5-8.646,33-17.2,49.5-25.841,5.2-2.69,10.4-5.476,15.7-8.262ZM126.1,386.505a16.826,16.826,0,0,1-1.3,4.131,9.181,9.181,0,0,1-2.2,3.074,7.935,7.935,0,0,1-3.1,1.921,10.381,10.381,0,0,1-3.9.672,13.266,13.266,0,0,1-2-.1,18.305,18.305,0,0,1-2-.384l.5-2.882a.856.856,0,0,1,.3-.672,1.006,1.006,0,0,1,.8-.288,4.662,4.662,0,0,1,1.1.1,6.887,6.887,0,0,0,1.5.1,4.843,4.843,0,0,0,1.7-.288,4.509,4.509,0,0,0,1.4-.961A7.49,7.49,0,0,0,120,389.2a9.926,9.926,0,0,0,.7-2.594l3.2-18.156h5.2l-3,18.06Zm13.1-3.843h9.6l-.7,3.843h-9.6Zm41.3-14.218-.7,3.939H168.2l-1.4,7.877h9.1l-.7,3.843h-9.1l-1.4,8.069h11.7l-.7,3.939H158.9l4.9-27.667h16.7Zm16.3,12.873-5.9-12.873h4.7a1.332,1.332,0,0,1,.7.1,2.113,2.113,0,0,1,.4.48l4,9.51a2.082,2.082,0,0,1,.5-.768l6.5-8.646a1.316,1.316,0,0,1,1.2-.672h5.4l-10.4,12.681,6.5,14.986h-4.6a1.162,1.162,0,0,1-.8-.288,2.005,2.005,0,0,1-.4-.576L200.1,384.2c-.1.1-.1.192-.2.288s-.1.192-.2.288l-8,10.471a1.76,1.76,0,0,1-.8.672,3.022,3.022,0,0,1-.9.192h-5.2l12-14.794Zm31.1,5-1.7,9.8H221l4.9-27.667h8.8a13.8,13.8,0,0,1,4.2.576,6.954,6.954,0,0,1,2.8,1.537,6.854,6.854,0,0,1,1.6,2.4,6.245,6.245,0,0,1,.4,3.074,13.876,13.876,0,0,1-.9,4.131,9.362,9.362,0,0,1-2.3,3.266,9.945,9.945,0,0,1-3.7,2.113,16.65,16.65,0,0,1-5.1.769h-3.8Zm2.5-14.121-1.8,10.183h3.6a7.912,7.912,0,0,0,2.7-.48,4.321,4.321,0,0,0,1.9-1.249,5.357,5.357,0,0,0,1.2-1.921,9.351,9.351,0,0,0,.5-2.4,5.12,5.12,0,0,0-.2-1.729,3.734,3.734,0,0,0-.8-1.345,3.408,3.408,0,0,0-1.4-.865,6.691,6.691,0,0,0-2-.288h-3.7Zm28.7,12.969-1.9,10.951h-5.1l4.9-27.667h8.2a16.7,16.7,0,0,1,4.2.48,6.868,6.868,0,0,1,2.8,1.441,5.124,5.124,0,0,1,1.6,2.209,6.31,6.31,0,0,1,.4,2.786,13.171,13.171,0,0,1-.6,2.978,8.475,8.475,0,0,1-1.5,2.594,9.176,9.176,0,0,1-2.3,2.017,10.511,10.511,0,0,1-3,1.345,2.666,2.666,0,0,1,.8.672,8.385,8.385,0,0,1,.6.961l4.7,10.279h-4.6a2.079,2.079,0,0,1-1.1-.288,1.2,1.2,0,0,1-.6-.768l-3.8-8.934a1.029,1.029,0,0,0-.6-.672c-.2-.192-.6-.192-1.1-.192h-2Zm2.3-12.969-1.7,9.414h3a7.953,7.953,0,0,0,2.7-.384,5.193,5.193,0,0,0,1.9-1.153,5.443,5.443,0,0,0,1.2-1.729,7.949,7.949,0,0,0,.5-2.209,3.356,3.356,0,0,0-1-2.786,5.013,5.013,0,0,0-3.5-1.057h-3.1Zm44.3-3.747-.7,3.939H293.4l-1.4,7.877h9.1l-.7,3.843h-9.1l-1.4,8.069h11.7l-.7,3.939H284l4.9-27.667h16.8Zm25.6,4.9a1.668,1.668,0,0,1-.6.576,1.489,1.489,0,0,1-.7.192,1.363,1.363,0,0,1-.8-.288c-.3-.192-.6-.384-1-.672a5.462,5.462,0,0,0-1.3-.672,5.227,5.227,0,0,0-1.9-.288,6.692,6.692,0,0,0-2,.288,2.858,2.858,0,0,0-1.4.865,3.655,3.655,0,0,0-.9,1.249,6.966,6.966,0,0,0-.4,1.537,2.248,2.248,0,0,0,.4,1.441,4.2,4.2,0,0,0,1.2,1.057,9.033,9.033,0,0,0,1.7.768c.6.192,1.3.48,2,.769s1.3.576,1.9.865a6.968,6.968,0,0,1,1.7,1.249,4,4,0,0,1,1.1,1.729,4.946,4.946,0,0,1,.3,2.5,12.7,12.7,0,0,1-.9,3.843,11.406,11.406,0,0,1-2.2,3.17,11.111,11.111,0,0,1-3.4,2.113,12.755,12.755,0,0,1-4.4.768,11.1,11.1,0,0,1-2.5-.288,9.2,9.2,0,0,1-2.3-.768,7.657,7.657,0,0,1-1.9-1.153,7.349,7.349,0,0,1-1.5-1.537l1.9-2.4a3.144,3.144,0,0,1,.6-.48,1.912,1.912,0,0,1,.7-.192,1.462,1.462,0,0,1,.6.192c.2.1.4.288.7.48a5.535,5.535,0,0,0,.8.576,8.869,8.869,0,0,0,1,.576,6.257,6.257,0,0,0,1.2.48,8.074,8.074,0,0,0,1.6.192,4.952,4.952,0,0,0,3.6-1.249,4.251,4.251,0,0,0,1.4-3.362,2.365,2.365,0,0,0-.4-1.537,4.2,4.2,0,0,0-1.2-1.057c-.5-.288-1.1-.48-1.7-.768a14.971,14.971,0,0,0-1.9-.672,6.756,6.756,0,0,1-1.9-.865,5.138,5.138,0,0,1-1.7-1.249,3.8,3.8,0,0,1-1.1-1.825,5.336,5.336,0,0,1-.3-2.594,8.882,8.882,0,0,1,.9-3.458,10.359,10.359,0,0,1,2.1-2.882,9.925,9.925,0,0,1,3.2-2.017,11.231,11.231,0,0,1,4.2-.768,18.565,18.565,0,0,1,2.3.192,12.089,12.089,0,0,1,2,.672,9.592,9.592,0,0,1,1.7.961,15.633,15.633,0,0,1,1.3,1.249l-1.8,2.5Zm27.7,0a1.668,1.668,0,0,1-.6.576,1.489,1.489,0,0,1-.7.192,1.363,1.363,0,0,1-.8-.288c-.3-.192-.6-.384-1-.672a5.462,5.462,0,0,0-1.3-.672,5.227,5.227,0,0,0-1.9-.288,6.692,6.692,0,0,0-2,.288,2.858,2.858,0,0,0-1.4.865,3.655,3.655,0,0,0-.9,1.249,6.966,6.966,0,0,0-.4,1.537,2.248,2.248,0,0,0,.4,1.441,4.2,4.2,0,0,0,1.2,1.057,9.033,9.033,0,0,0,1.7.768c.6.192,1.3.48,2,.769s1.3.576,1.9.865a6.968,6.968,0,0,1,1.7,1.249,4,4,0,0,1,1.1,1.729,4.946,4.946,0,0,1,.3,2.5,12.7,12.7,0,0,1-.9,3.843,11.406,11.406,0,0,1-2.2,3.17,11.111,11.111,0,0,1-3.4,2.113,12.755,12.755,0,0,1-4.4.768,11.1,11.1,0,0,1-2.5-.288,9.2,9.2,0,0,1-2.3-.768,7.657,7.657,0,0,1-1.9-1.153,7.349,7.349,0,0,1-1.5-1.537l1.9-2.4a3.144,3.144,0,0,1,.6-.48,1.912,1.912,0,0,1,.7-.192,1.462,1.462,0,0,1,.6.192c.2.1.4.288.7.48a5.535,5.535,0,0,0,.8.576,8.869,8.869,0,0,0,1,.576,6.257,6.257,0,0,0,1.2.48,8.074,8.074,0,0,0,1.6.192,4.952,4.952,0,0,0,3.6-1.249,4.251,4.251,0,0,0,1.4-3.362,2.365,2.365,0,0,0-.4-1.537,4.2,4.2,0,0,0-1.2-1.057c-.5-.288-1.1-.48-1.7-.768a14.971,14.971,0,0,0-1.9-.672,6.756,6.756,0,0,1-1.9-.865,5.138,5.138,0,0,1-1.7-1.249,3.8,3.8,0,0,1-1.1-1.825,5.336,5.336,0,0,1-.3-2.594,8.882,8.882,0,0,1,.9-3.458,10.359,10.359,0,0,1,2.1-2.882,9.925,9.925,0,0,1,3.2-2.017,11.231,11.231,0,0,1,4.2-.768,18.565,18.565,0,0,1,2.3.192,12.089,12.089,0,0,1,2,.672,9.592,9.592,0,0,1,1.7.961,15.633,15.633,0,0,1,1.3,1.249l-1.8,2.5Z"
    transform="translate(-12)" fill="#fff" />
</svg>
