<svg xmlns="http://www.w3.org/2000/svg" width="500" height="500">
  <g fill="none" fill-rule="evenodd">
    <rect width="500" height="500" fill="#F70001" rx="53" />
    <path d="M36 228h428v164H36z" />
    <path fill="#FFF" fill-rule="nonzero"
      d="M104.845 277.026c-3.28.282-5.694 1.219-7.901 3.057-1.242 1.037-2.138 1.934-2.553 2.559-.558.84-.883 2.02-.883 3.204 0 1.314.38 2.316 1.26 3.326 1.514 1.74 4.058 2.602 7.416 2.515 2.436-.065 4.544-.58 6.564-1.608 3.12-1.588 4.977-3.673 5.708-6.427.121-.455.138-.585.143-1.123.004-.52-.009-.65-.096-.932-.48-1.54-1.389-2.537-3.141-3.452a10.355 10.355 0 0 0-3.033-1.024c-.446-.078-.714-.09-1.904-.1a50.769 50.769 0 0 0-1.58.005zm341.4 3.47c-.259.082-.532.346-.67.645-.052.122-3.267 10.481-7.144 23.027l-7.335 23.733c-.156.507-.285.993-.285 1.084 0 .234.13.446.35.572l.19.109 8.482.013c9.385.008 8.745.03 9.095-.274.1-.082.23-.255.29-.381.061-.122 3.099-9.926 6.755-21.778 3.657-11.855 6.954-22.527 7.322-23.72.718-2.307.766-2.524.605-2.766a.736.736 0 0 0-.26-.213l-.18-.1-8.504-.008c-7.425-.005-8.529 0-8.71.056zm-396.593.606c-.826.096-1.384.464-1.687 1.115-.152.32-11.316 32.449-11.48 33.03-.13.473-.295 1.284-.385 1.908-.113.78-.113 3.374 0 4.163.294 2.051.8 3.512 1.709 4.9a8.33 8.33 0 0 0 1.19 1.466c1.618 1.643 3.609 2.576 6.391 2.988.45.065 1.173.073 7.464.086 3.834.009 10.182 0 14.107-.021l7.14-.03.194-.105c.269-.143.805-.694 1.078-1.11.342-.529.865-1.6 1.233-2.524.182-.455.654-1.795 1.052-2.97 1.229-3.664 1.579-4.753 2.159-6.756.307-1.054.333-1.18.333-1.54 0-.446-.06-.624-.303-.893a1.625 1.625 0 0 0-.684-.434c-.138-.047-2.012-.065-9.87-.082l-9.693-.022-.329-.16c-.584-.29-1.081-.941-1.332-1.748-.117-.377-.16-1.05-.091-1.396.026-.139 2.19-6.565 4.812-14.28 2.812-8.287 4.773-14.12 4.786-14.253.069-.638-.416-1.167-1.2-1.314-.207-.04-16.256-.057-16.594-.018zm198.66 11.427c-3.003.125-5.218.394-8.892 1.062-3.038.555-3.488.607-4.868.568-1.039-.03-1.679-.087-3.977-.342-1.83-.204-1.878-.2-2.393.052-.302.151-.683.533-.826.832-.048.104-3.449 10.859-7.555 23.902-5.262 16.704-7.469 23.773-7.469 23.907 0 .26.16.425.45.468.117.018 3.873.026 8.351.013l8.14-.017.212-.1c.285-.126.48-.277.61-.472.065-.1.917-2.84 2.293-7.36 1.208-3.958 2.199-7.202 2.207-7.21.009-.01.303.12.654.285 2.05.963 4.266 1.492 7.352 1.752 1.008.087 4.236.074 5.344-.021 2.678-.234 4.963-.668 6.966-1.332 1.09-.36 2.004-.793 3.224-1.53 2.553-1.54 4.994-3.76 6.785-6.162 2.622-3.522 4.22-7.628 4.535-11.66.065-.82.03-2.646-.065-3.362-.23-1.747-.67-3.243-1.389-4.713-2.28-4.653-7.019-7.745-12.96-8.452a34.27 34.27 0 0 0-1.177-.113c-.71-.047-4.353-.047-5.552.005zm1.515 9.162c1.315.222 2.466.833 3.202 1.709.935 1.114 1.376 2.541 1.376 4.475 0 .95-.056 1.535-.255 2.537-.935 4.74-2.817 7.363-6.054 8.43-1.87.616-4.236.754-7.746.46-1.28-.109-1.544-.148-1.674-.243-.07-.048-.121-.065-.121-.04 0 .066-.134.053-.459-.047-.32-.1-.58-.308-.58-.468 0-.048.117-.456.255-.902.143-.451.39-1.245.546-1.77.16-.524.601-1.882.982-3.013 1.025-3.049 1.566-4.697 1.835-5.594.28-.946.554-1.535 1.047-2.277 1.268-1.908 3.08-3.061 5.136-3.27.264-.026.545-.056.628-.065.298-.034 1.501.018 1.882.078zm45.63-9.167c-5.92.49-11.748 3.383-16.4 8.135a26.291 26.291 0 0 0-3.618 4.571c-3.444 5.412-5.028 11.084-4.409 15.806.342 2.61 1.376 4.844 2.986 6.461.982.98 1.86 1.51 3.397 2.038 2.401.824 5.028.764 7.65-.177.662-.234 2.099-.941 2.748-1.349 2.587-1.622 4.816-4.176 5.807-6.648.182-.446.454-1.327.454-1.452 0-.026-.186.043-.41.16-.715.356-2.043.746-3.19.932-.653.105-2.138.105-2.622 0-1.83-.403-2.791-1.448-3.042-3.317-.07-.516-.026-1.708.09-2.394.286-1.73 1-3.885 1.9-5.745 1.887-3.899 4.617-6.453 7.594-7.099.373-.082.572-.095 1.325-.095.757 0 .951.013 1.337.095 1.06.234 1.64.655 2.064 1.505.268.546.367 1.032.367 1.843 0 .442-.025.776-.086 1.127-.065.36-.987 3.448-3.34 11.166-2.199 7.199-3.263 10.75-3.276 10.92-.018.234-.009.255.134.398l.151.152h7.902c5.612 0 7.962-.013 8.122-.048.272-.06.502-.255.636-.546.052-.113 1.904-6.006 4.115-13.087l4.933-15.806c.502-1.61.935-3.04.956-3.179.074-.455-.056-.807-.359-.976-.125-.065-.316-.073-1.912-.078-2.316-.004-3.627-.112-5.15-.412-1.095-.216-1.67-.381-3.95-1.127-3.077-1.01-5.28-1.435-8.837-1.713-1.034-.078-3.41-.113-4.067-.06zm82.93.005c-4.885.325-9.762 1.678-14.345 3.967-4.785 2.398-8.606 5.464-11.337 9.103-1.852 2.467-3.12 5.307-3.544 7.948-.272 1.678-.22 3.5.143 5.017.874 3.634 3.185 6.63 6.794 8.803a20.585 20.585 0 0 0 3.955 1.796c4.301 1.422 9.866 1.595 15.392.477 1.497-.304 3.86-.954 4.465-1.232.602-.278.879-.711.822-1.297-.026-.281-2.111-9.804-2.194-10.021a.938.938 0 0 0-.45-.503c-.307-.139-.476-.113-1.428.221-2.202.768-4.842.89-6.62.295-2.211-.733-3.626-2.723-3.401-4.774.16-1.449.779-2.65 1.934-3.764 1.151-1.106 2.713-2.012 4.513-2.62 1.865-.628 3.652-.776 5.366-.45.506.1 1.471.416 2.034.672.238.108.454.169.61.182.238.017.25.013.402-.148.087-.095.77-1.066 1.523-2.164.758-1.097 2.432-3.538 3.73-5.42 1.299-1.886 2.406-3.526 2.463-3.651.199-.434.186-.868-.04-1.123-.181-.209-.367-.295-1.016-.473-1.515-.416-3.401-.716-5.327-.846-.762-.047-3.67-.047-4.444.005zm34.25.065c-.654.034-1.987.147-2.515.217-5.054.646-10.116 2.575-14.53 5.541-4.08 2.741-7.252 6.193-9.109 9.9a18.256 18.256 0 0 0-1.809 5.976c-.077.668-.065 2.359.026 3.035.528 3.947 2.55 7.212 5.933 9.584 2.605 1.826 5.664 2.905 9.217 3.252 2.67.26 7.455 0 11.142-.611 6.15-1.015 11.082-3.036 14.734-6.032 1.407-1.154 2.19-2.038 2.45-2.771.125-.351.13-.837.012-1.102-.194-.42-.601-.741-1.203-.94-.311-.105-.415-.118-.978-.118l-.627-.004-.714.312c-5.582 2.429-11.116 3.704-15.089 3.482-3.336-.186-5.755-1.144-7.594-3.005l-.39-.399 1.247-.308c.688-.173 7.512-1.856 15.162-3.746 7.65-1.89 13.93-3.452 13.951-3.47.06-.056.164-2.753.169-4.38.008-2.068-.117-3.048-.563-4.4-.883-2.68-3.431-5.564-6.478-7.325-2.514-1.452-5.374-2.307-8.723-2.606-.731-.065-3.05-.117-3.721-.082zm-1.303 12.835a7.51 7.51 0 0 1 2.354.742c1.03.533 1.878 1.427 2.229 2.359l.043.113-7.555 2.129c-4.159 1.166-7.564 2.12-7.573 2.112-.026-.026.169-1.12.273-1.522.398-1.574 1.45-2.927 3.171-4.085 1.368-.924 3.142-1.622 4.695-1.848.567-.086 1.796-.086 2.363 0zm-67.91-12.163c-.797.052-1.467.134-4.003.477-4.712.637-4.54.62-5.669.62-.84 0-1.181-.022-1.969-.121-1.579-.196-2.354-.243-3.85-.239-.762.004-1.645.017-1.965.035l-.58.026-1.177 3.794c-.65 2.086-3.055 9.813-5.348 17.172-2.55 8.179-4.172 13.465-4.185 13.604-.03.416.29.771.783.88.16.034 2.458.043 8.08.034l7.853-.013.238-.13a3.98 3.98 0 0 0 .597-.477l.36-.347 2.617-8.846c1.554-5.238 2.683-8.976 2.77-9.167.584-1.266 1.774-2.333 3.145-2.819.68-.238 1.182-.32 1.956-.32.84-.005 1.446.1 2.307.381l.575.187.273-.33c.151-.186 2.016-2.459 4.15-5.052l3.872-4.718-.082-.312c-.108-.412-.454-1.11-.722-1.466-1.251-1.648-3.57-2.623-6.811-2.853-.727-.057-2.385-.052-3.215 0zm-205.93.065c-4.271.186-8.3 1.136-12.268 2.9-5.616 2.494-10.277 6.215-13.215 10.551a18.926 18.926 0 0 0-1.454 2.49c-.965 1.934-1.523 3.763-1.783 5.802-.086.68-.073 2.567.022 3.248.562 4.02 2.713 7.367 6.261 9.74 2.804 1.872 6.032 2.909 9.9 3.182.84.06 3.026.06 3.926.004 4.383-.286 8.71-1.474 13.003-3.568 6.157-3.01 11.255-7.784 13.656-12.802.866-1.808 1.42-3.677 1.645-5.55.095-.815.095-2.316 0-3.079-.386-3.022-1.688-5.603-3.916-7.75-3.064-2.952-7.227-4.674-12.268-5.086-.779-.06-2.847-.112-3.51-.082zm-1.96 12.918c1.125.07 2.505.525 3.422 1.136.619.412 1.246 1.106 1.562 1.739.836 1.66.429 3.69-1.107 5.542-1.065 1.28-2.99 2.524-4.89 3.157-2.043.68-4.366.754-5.963.19-.948-.338-1.713-.893-2.302-1.686-.627-.833-.904-1.657-.904-2.663 0-1.34.489-2.64 1.41-3.75 1.433-1.722 4.033-3.145 6.556-3.583.459-.078 1.29-.138 1.623-.121.12.009.385.026.592.039zm56.07-12.914c-3.898.174-9.315 1.11-12.621 2.186-.879.286-1.744.32-3.28.126-.48-.061-.965-.16-1.584-.326-1.346-.36-2.038-.455-3.674-.52-.68-.03-3.362.048-3.626.1l-.147.03-.282.91c-.294.955-2.626 8.3-3.712 11.687-1.255 3.92-6.772 22.003-6.772 22.194 0 .325.194.577.584.754l.216.1h8.135c6.374 0 8.174-.013 8.313-.052.281-.087.502-.277.653-.56.121-.229 1.238-3.846 5.427-17.579.437-1.44.848-2.706.926-2.862.341-.68.86-1.197 1.324-1.314.835-.208 3.327-.434 5.448-.494 1.09-.03 1.246-.009 1.752.225.878.408 1.225.933 1.264 1.93l.021.455-.865 2.819c-.476 1.548-1.636 5.308-2.575 8.347-.939 3.04-1.882 6.084-2.09 6.765-.433 1.405-.472 1.652-.311 1.926a.723.723 0 0 0 .315.281l.212.113 8.053.013c4.79.005 8.166-.004 8.339-.03.554-.078.96-.347 1.177-.78.086-.17 5.24-16.982 5.764-18.79.865-3.01.895-5.915.082-8.595-.861-2.845-2.713-5.108-5.535-6.77-1.925-1.131-4.4-1.877-7.165-2.163-1.151-.121-2.722-.173-3.765-.126zm-98.702 1.613c-.294.104-.562.382-.683.712-.048.125-2.437 7.827-5.314 17.115-3.903 12.628-5.223 16.943-5.223 17.094.004.278.121.464.38.599l.213.108h8.355c6.742 0 8.387-.013 8.538-.056.22-.07.493-.3.636-.547.104-.182 10.554-33.988 10.606-34.31a.623.623 0 0 0-.355-.671l-.212-.104-8.351-.009c-8.096-.009-8.36-.009-8.59.07z" />
    <path fill="#FFF"
      d="M306 149c-.367 1.571-1.837 3.643-2.571 5-.466-.333-1.225-1.31-1.788-1.881-.735-.738-1.151-1.405-1.641-2.286 1.273 0 2.278-.071 3.184-.238 1.298-.214 1.714-.524 2.816-.595zm-37.15 100.732c-.143-.974-.332-2.185-.499-3.42l3.132-.214h.095c1.708-.12 4.579-.547 9.371-3.065 2.919-1.544 6.976-5.654 8.85-8.315 2.99-4.276 4.579-9.622 4.579-15.11v-.261c0-1.425-.143-2.827-.356-4.181-.024-.095-.024-.214-.048-.309l-.023-.071a27.077 27.077 0 0 0-2.373-7.341c-3.345-6.913-9.774-11.76-17.058-13.708a27.076 27.076 0 0 0-4.603-.831l-.26-.024-.238-.024c-4.365-.332-8.85.38-13.025 2.28-.403.19-.783.357-1.139.547-3.203 1.616-6.026 3.873-8.327 6.557l-.048.071-.45-.213c-8.304-3.992-20.546-27.13-23.44-37.655-3.583-13.02-5.86-35.16-2.943-48.655.451-2.09 1.02-5.036 1.234-6.058-8.422-5.345-20.024 1.925-21.329 18.436-2.111 26.608 14.188 54.427 33.191 70.962 2.753 2.4 4.864 3.944 6.383 5.131l4.08 2.97a26.77 26.77 0 0 0-1.542 3.587c-2.918-1.734-5.504-3.373-8.683-5.773-2.776-2.066-5.315-4.014-7.9-6.2-5.718-4.894-8.708-8.268-13.904-14.302-6.429-7.46-17.461-26.085-18.03-38.985-12.48-1.663-20.238 21.951 3.131 43.499 15.137 13.97 25.077 18.174 44.271 26.228a24.3 24.3 0 0 0-.308 2.946l-.024.261c-3.084.261-14.591-3.421-17.865-4.609-30.06-10.928-37.059-23.995-40.546-27.677-4.911 3.492-5.718 13.565-1.376 19.386 7.355 9.86 23.322 15.537 35.777 16.939 7.735.879 13.69 1.259 21.448.926l2.847-.261c.19 1.33.474 2.637.83 3.896l-.427.095-.522.119h-.024c-16.346 3.35-29.3 2.637-44.935-2.376-4.46-1.425-10.225-4.846-10.96-5.25-1.4 1.164-4.058 21.096 23.06 21.31 6.809.047 13.642-1.283 19.502-3.16 5.528-1.782 10.557-3.943 16.157-6.105a26.162 26.162 0 0 0 1.826 3.017l-.783.712c-.166.19-.38.357-.593.547-3.748 3.207-12.977 7.127-17.746 8.671-10.676 3.445-15.374 2.899-25.979 1.663 1.281 14.112 17.082 12.401 26.05 8.862 9.087-3.588 15.113-10.382 21.803-17.082.76.784 1.566 1.52 2.42 2.21-.569 1.283-1.21 2.352-1.945 3.444-3.891 5.678-13.547 13.043-19.265 15.656-5.884 2.685-9.253 2.851-10.13 3.017.545 3.683 4.389 5.678 8.897 5.655 13.523-.12 22.301-17.438 24.768-22.427l1.4-2.803c.902.522 1.85.974 2.823 1.378l-1.02 3.373c-.047.143-.095.309-.142.475v.024c-.593 1.853-1.708 4.3-3.559 7.412-6.88 11.594-13.12 13.352-13.831 13.708 1.565 2.756 6.358 3.492 9.964 2.02 8.802-3.564 10.13-16.583 11.673-23.9l.38-1.972c.948.261 1.897.451 2.894.594l.024.119c1.613 15.228-5.196 22.569-5.623 23.282 4.674.807 8.73-.048 10.89-3.612 2.087-3.444 1.09-9.265.569-13.47 4.745-.166 10.273-1.782 13.879-2.97 11.46-3.824 19.051-13.588 22.207-24.992.308-1.093.783-2.21 1.044-3.373 1.826 0 3.867-.19 3.867-2.495 0-.499-.451-1.995-.688-2.375-.712-1.14-3.749-3.065-3.749-6.225 0-.689.403-1.83.546-2.494 1.495-.12 3.606-1.663 3.606-3.326 0-2.495-4.223-3.801-5.765-5.322-1.519-1.52-3.393-5.345-3.393-7.697 0-1.426-.712-4.99 1.376-4.99 2.207 0 11.08 4.538 11.08-9.146-3.464 1.663-5.979 2.78-9.466.048-4.081-3.184-.689-14.183 6.975-14.183 1.66 0 2.847.356 3.677 1.307.736.831 1.257 2.542 1.305 3.967 1.542-1.022 2.657-2.376 3.796-3.944.688-.95 2.017-4.561 2.017-6.034 0-1.021-.522-1.378-.451-2.186.118-1.306 1.922-3.04-.356-4.49-1.803-1.14-5.362.974-11.46-2.09-.806-.404-1.684-1.022-2.395-1.212.023-1.544.545-1.782.545-3.326 0-2.423-7.544-5.464-10.13-7.056-1.804-1.116-3.464-2.257-4.888-3.682-1.993-2.02-2.965-3.659-3.226-4.728-.404-.19-.783-.332-1.4-.332-2.278 0-3.986 1.734-4.437 3.61-.498-.522-.878-.902-1.59-1.377a12.7 12.7 0 0 0-2.206-1.212c-5.1-2.185-8.493-2.304-13.926-5.179-2.017 1.354-3.701 3.54-3.037 6.367-2.562-1.354-4.864-1.116-7.616-.713-1.66.238-6.951.974-8.304.88-1.328 0-3.179-.238-4.27-.452-.119 1.544-.83 2.803-.83 4.704 0 1.877.569 3.065.83 3.611-3.132 0-4.698.024-7.213.523-2.61.522-4.531.665-7.164.57-.783 3.326-.902 4.989.877 8.267.64 1.188 2.088 3.326 2.705 3.944-1.376.475-3.867.95-5.267 1.117 0 3.92 1.685 9.455 2.705 13.09 3.013 10.785 8.327 19.79 15.018 28.484.664.856 1.28 1.568 1.945 2.21a18.45 18.45 0 0 1 1.946-1.663c6.263-4.87 12.218-6.937 20.759-6.937 4.057 0 9.04 1.449 11.815 2.85 3.749 1.901 5.931 3.398 8.73 6.225 3.987 3.991 6.454 8.766 7.854 14.325 2.87 11.285-1.139 24.708-10.582 31.526-1.66 1.188-3.179 2.067-5.053 3.017-2.99 1.497-8.375 2.898-12.622 3.041l-.118-.048zm6.018-103.862c0 1.076 1.005 3.008.563 3.13-2.304-.196-3.431-2.396-3.431-4.842 0-4.646 8.603-6.26 10-.293-1.03-.514-3.088-1.15-4.29-1.15-1.372 0-2.867 1.786-2.867 3.13l.025.025z" />
  </g>
</svg>
