<svg xmlns="http://www.w3.org/2000/svg" width="500" height="500">
  <g fill="none" fill-rule="evenodd">
    <rect width="500" height="500" fill="#EB5F27" rx="53" />
    <g fill="#FFF" fill-rule="nonzero">
      <path
        d="M407.938 376.7l11.312-32.076h12.678L443 376.701h-12.276l-1.042-4.06h-8.585l-.964 4.06h-12.195zM423.1 365.09h4.734l-.962-3.656c-.482-1.867-.802-3.247-.963-4.221-.162-.976-.32-1.95-.32-2.763h-.241c-.081.894-.162 1.787-.321 2.761-.161.976-.482 2.438-.963 4.223l-.964 3.654v.002zM394.297 376.7v-32.077h11.554v32.077h-11.554zm-29.848-3.574l3.61-9.014c1.607 1.137 3.051 2.03 4.333 2.518 1.284.568 2.488.812 3.611.812.803 0 1.363-.163 1.845-.487.482-.325.643-.73.643-1.218 0-.894-1.123-1.544-3.37-2.03-.723-.164-1.283-.325-1.685-.406-2.327-.57-4.172-1.626-5.456-3.088-1.284-1.461-1.845-3.327-1.845-5.52 0-3.411 1.203-6.253 3.69-8.445 2.407-2.193 5.617-3.249 9.549-3.249 1.845 0 3.61.243 5.376.73 1.764.487 3.53 1.218 5.295 2.193l-3.45 8.364c-1.124-.812-2.166-1.462-3.29-1.868-1.124-.405-2.166-.649-3.21-.649-.802 0-1.444.163-1.844.406a1.3 1.3 0 0 0-.643 1.137c0 .893 1.605 1.705 4.734 2.355.482.082.883.243 1.204.243 2.166.488 3.932 1.544 5.134 3.006 1.284 1.543 1.846 3.41 1.846 5.522 0 3.572-1.283 6.415-3.77 8.688-2.569 2.275-5.858 3.411-9.87 3.411-2.085 0-4.17-.325-6.258-.893-2.007-.406-4.092-1.3-6.179-2.518zm-23.83 3.574v-32.077h21.183v8.689h-10.029v3.086h9.067v8.202h-9.068v3.41h10.272v8.688H340.62v.002zm-38.03 0v-32.077h11.152l9.869 16.81c-.168-.802-.248-1.618-.24-2.437-.082-.893-.082-2.11-.082-3.572v-10.72h10.993v32.076h-11.233l-9.709-16.647c.081.73.162 1.462.242 2.355.08.813.08 1.705.08 2.761v11.531h-11.074l.001-.08zm-5.056-15.917c0 2.355-.4 4.548-1.204 6.578-.802 2.03-2.006 3.817-3.61 5.44a17.213 17.213 0 0 1-5.456 3.574 17.88 17.88 0 0 1-6.58 1.218c-2.326 0-4.572-.407-6.66-1.218a15.733 15.733 0 0 1-5.535-3.655c-1.606-1.543-2.728-3.329-3.53-5.359-.802-2.03-1.203-4.223-1.203-6.578 0-2.355.4-4.548 1.202-6.578.803-2.03 2.006-3.817 3.531-5.359a17.213 17.213 0 0 1 5.456-3.574c2.086-.811 4.252-1.217 6.66-1.217 2.407 0 4.573.406 6.659 1.217a16.7 16.7 0 0 1 5.536 3.574c1.526 1.544 2.728 3.33 3.53 5.36.722 2.03 1.204 4.222 1.204 6.577zm-17.01 6.01c1.605 0 2.889-.569 3.851-1.626.964-1.135 1.444-2.597 1.444-4.385 0-1.866-.48-3.328-1.444-4.466-.962-1.137-2.246-1.705-3.85-1.705-1.606 0-2.89.568-3.852 1.705-.962 1.138-1.444 2.6-1.444 4.385 0 1.869.482 3.33 1.444 4.385.963 1.138 2.246 1.707 3.851 1.707zm-51.03 9.907v-32.077h9.227c2.889 0 5.456.163 7.463.487 2.086.325 3.77.812 5.054 1.543 2.729 1.462 4.814 3.41 6.338 5.765 1.445 2.438 2.167 5.117 2.167 8.203 0 3.086-.722 5.765-2.167 8.202-1.444 2.355-3.53 4.303-6.338 5.765-1.364.73-3.048 1.218-5.135 1.544-2.085.323-4.813.486-8.265.486h-8.344v.082zm11.314-9.745c2.567 0 4.414-.487 5.615-1.543 1.205-.974 1.767-2.599 1.767-4.71 0-2.111-.562-3.655-1.686-4.63-1.123-1.055-2.889-1.543-5.214-1.543h-.482v12.426zm-49.505 9.745v-32.077h11.152l9.87 16.81c-.168-.802-.25-1.618-.242-2.437-.081-.893-.081-2.11-.081-3.572v-10.72h10.994v32.076h-11.233l-9.709-16.647c.081.73.16 1.462.24 2.355.081.813.081 1.705.081 2.761v11.531h-11.072v-.08zm-17.732 0v-32.077h11.554v32.077H173.57zm-45.896-2.275l3.61-9.013c1.607 1.136 3.051 2.03 4.334 2.517 1.283.569 2.487.812 3.61.812.804 0 1.364-.163 1.846-.487.481-.325.642-.73.642-1.218 0-.894-1.123-1.544-3.37-2.03-.722-.163-1.283-.243-1.685-.406-2.327-.568-4.172-1.626-5.456-3.087-1.283-1.462-1.845-3.328-1.845-5.52 0-3.412 1.203-6.254 3.69-8.446 2.407-2.193 5.617-3.249 9.549-3.249 1.845 0 3.61.243 5.375.731 1.765.488 3.53 1.219 5.296 2.193l-3.45 8.363c-1.124-.811-2.166-1.462-3.29-1.867-1.124-.406-2.167-.65-3.209-.65-.803 0-1.363.163-1.845.406a1.3 1.3 0 0 0-.643 1.137c0 .893 1.605 1.705 4.734 2.355.482.082.883.243 1.204.243 2.166.488 3.93 1.544 5.135 3.006 1.283 1.544 1.845 3.41 1.845 5.522 0 3.572-1.282 6.415-3.771 8.688-2.568 2.275-5.857 3.411-9.869 3.411-2.087 0-4.172-.325-6.259-.893-2.006-.406-4.091-1.3-6.178-2.518zm-2.325-13.236c0 2.355-.403 4.548-1.204 6.578-.804 2.03-2.006 3.817-3.611 5.441a17.213 17.213 0 0 1-5.456 3.572c-2.087.813-4.252 1.219-6.58 1.219-2.326 0-4.573-.406-6.659-1.219a15.733 15.733 0 0 1-5.537-3.654c-1.604-1.544-2.726-3.33-3.53-5.36-.802-2.03-1.203-4.222-1.203-6.577 0-2.355.4-4.548 1.204-6.578.801-2.03 2.005-3.817 3.53-5.36a17.213 17.213 0 0 1 5.455-3.573c2.087-.812 4.252-1.217 6.66-1.217 2.407 0 4.573.405 6.66 1.217a16.7 16.7 0 0 1 5.535 3.574c1.526 1.543 2.728 3.329 3.532 5.359.801 2.03 1.204 4.223 1.204 6.578zm-16.93 6.09c1.604 0 2.888-.568 3.85-1.624.964-1.137 1.444-2.599 1.444-4.386 0-1.867-.48-3.329-1.444-4.465-.962-1.137-2.246-1.705-3.85-1.705-1.606 0-2.89.568-3.852 1.705-.964 1.136-1.444 2.598-1.444 4.385 0 1.867.48 3.249 1.444 4.385.963 1.137 2.246 1.705 3.851 1.705zm-35.946-13.156v5.361h1.764c1.044 0 1.927-.245 2.488-.65a2.482 2.482 0 0 0 .883-1.948c0-.813-.321-1.544-.883-1.95-.561-.488-1.444-.73-2.488-.73h-1.762l-.002-.083zM61 377.27v-32.076h13.64c4.813 0 8.263.974 10.51 2.841 2.246 1.868 3.29 4.791 3.29 8.853 0 3.815-.964 6.576-2.97 8.282-2.005 1.705-5.134 2.599-9.467 2.599h-3.528v9.501H61zM196 273.272h33.985l-9.196 6.225H200l-3.359-5.028c-.24-.4-.4-.798-.64-1.197zm166.162 5.586l-37.742.161c-7.116 18.997-25.908 35.28-39.181 43.74-.72.081-1.28.162-1.76.241h-2.159c-1.04 0-2.08 0-3.039-.08-.32-.081-.799-.081-1.198-.16-8.077-4.789-19.111-12.292-25.029-20.673l6.637-2.873c5.357 7.103 11.915 12.37 18.55 18.917l.162-25.862 6.156-2.395.161 28.816c12.954-10.776 25.107-25.464 33.024-39.591l-2.959-.16 14.073-6.146 38.142-.08c-1.44 2.474-2.159 3.75-3.838 6.146zm-78.762-39.35l-6.158 3.911v-10.058h6.158v6.146zm-43.82 27.139c-3.918-10.377-6.477-20.913-7.116-32.885h-5.919c.561 13.17 2.72 24.584 7.038 36.796l5.997-3.911zm43.66-99.776l.08-35.12c11.034 8.62 22.549 20.754 30.785 35.12h7.516c-9.435-21.71-28.707-35.2-36.942-38.713a9.861 9.861 0 0 0-1.6-.158h-5.517c-.32 0-.56.08-.8.08-10.874 5.507-29.105 19.795-36.462 39.11h8.076c6.796-14.845 18.072-25.542 29.026-34.64l-.081 34.321h5.919z" />
      <path
        d="M178.096 236.353l5.85-.482c2.404 22.47 10.419 38.358 23.16 54.568l-4.567 3.851c-14.987-17.413-23.963-37.876-24.443-57.937zm54.495 74.708l-6.49 3.291C242.05 324.303 261.282 330 281.479 330c45.44-.802 84.31-30.493 98.175-71.74l-7.534 2.408c-13.224 36.672-49.448 63.476-90.56 63.476-17.23 0-34.943-5.379-48.968-13.082h-.001zm-127.906-117.88l3.286-2.57 169.58-6.018c5.05.24 11.14 4.172 12.903 7.703l-185.769.883v.002zm-12.583 9.788l202.36-6.098c3.767 0 9.778 3.77 13.224 7.463l-219.27 1.364 3.686-2.727v-.002zM75.914 215.81l233.935-6.5c6.25-.24 13.224 4.496 14.346 7.062l-251.808 2.246 3.527-2.808zm283.543-48.388c-17.711-23.193-47.043-39.482-77.978-39.482-31.256-.562-62.351 15.729-79.26 39.803l-7.295.16C213.6 140.457 245.736 122 281.401 122c35.181 0 66.677 18.056 85.35 45.26l-7.292.162h-.002zm52.493 58.42c2.085 0 3.527 1.764 3.527 4.012 0 2.248-1.361 3.53-3.527 3.53-2.165 0-4.007-1.282-4.007-3.53 0-2.248 1.924-4.012 4.007-4.012zM124.882 176.89l242.028-6.501c28.291 6.42 27.65 28.407 13.784 46.383l26.368-.32c13.143-.562 20.356 11.715 32.938 23.913-36.144 4.012-69.002 13-106.429 24.956-52.332 17.253-100.9 38.44-153.713 60.908 27.41-30.253 51.692-45.902 76.135-62.672 18.673-11.475 41.674-24.315 58.904-33.624h12.183c-14.345 7.222-35.182 19.66-54.096 30.493-20.035 11.395-46.322 29.13-64.274 47.025 46.082-19.018 85.27-35.63 130.79-49.994 25.488-7.863 55.14-17.171 86.314-22.229-2.965-7.623-9.456-12.437-20.676-12.437H367.07c8.094-8.827 14.906-21.907 14.826-31.779-.08-6.178-9.056-12.437-15.869-12.357l-244.032.962 2.886-2.727zM57 231.538l2.966-2.488 258.137-7.223c5.451 0 9.458-1.042 12.744 0 4.488 1.766 7.693 4.014 10.498 7.223L57 231.538z" />
    </g>
  </g>
</svg>
