<svg xmlns="http://www.w3.org/2000/svg" width="500" height="500">
  <g fill="none" fill-rule="evenodd">
    <rect width="500" height="500" fill="#0C524A" rx="53" />
    <path fill="#FFF"
      d="M54 138v128c0 6.627 5.373 12 12 12h20.862V167.012h28.589c13.606.988 20.41 7.61 20.41 19.866 0 12.255-6.804 19.296-20.41 21.122h-16.89a3 3 0 0 0-2.594 4.506L133.994 278h30.946a4 4 0 0 0 3.43-6.056l-27.41-45.74c18.463-4.56 27.694-17.67 27.694-39.326 0-31.252-17.734-47.545-53.203-48.878H54zM181 164v113h54c7.732 0 14-6.268 14-14v-8.403h-39.805v-20.295H235c7.732 0 14-6.268 14-14v-9.595h-39.805v-22.539H235c7.732 0 14-6.268 14-14V164h-68zM272.5 165h35.63L337 201.571 278.88 308H246l56.979-104.065z" />
    <path fill="#C9312B" d="M357.575 164h35.391l-33.363 64.168L397 277h-35.523L323 228.168z" />
    <path fill="#EE4336" d="M356.592 164H392l-47.933 92L322 228.27z" />
    <path fill="#FFF"
      d="M313.07 317.246V292h5.136v11.211L328.583 292h6.907l-9.58 9.833 10.1 15.413h-6.646l-6.993-11.848-4.165 4.22v7.628h-5.137zm25.56-20.768V292h4.877v4.478h-4.877zm0 20.768v-18.289h4.877v18.29h-4.877zm14.542 0h-4.876v-18.289h4.53v2.6c.774-1.228 1.471-2.037 2.09-2.427.62-.39 1.322-.586 2.109-.586 1.11 0 2.18.304 3.21.913l-1.51 4.219c-.821-.528-1.585-.792-2.29-.792-.683 0-1.261.186-1.736.56-.474.373-.847 1.047-1.119 2.023-.272.976-.408 3.02-.408 6.13v5.65zm9.163-20.768V292h4.876v4.478h-4.876zm0 20.768v-18.289h4.876v18.29h-4.876zm9.51-18.289h4.494v2.497c1.608-1.94 3.522-2.91 5.743-2.91 1.18 0 2.204.241 3.072.723.868.483 1.579 1.212 2.134 2.187.81-.975 1.684-1.704 2.62-2.187a6.468 6.468 0 0 1 3.003-.723c1.353 0 2.498.273 3.436.818.937.545 1.637 1.346 2.1 2.402.335.781.502 2.044.502 3.79v11.692h-4.876v-10.453c0-1.814-.167-2.985-.503-3.513-.451-.689-1.145-1.033-2.082-1.033-.683 0-1.325.206-1.926.62-.602.413-1.036 1.019-1.302 1.816-.266.798-.4 2.058-.4 3.78v8.783h-4.875v-10.022c0-1.78-.087-2.928-.26-3.445-.174-.516-.443-.9-.807-1.153-.365-.253-.86-.38-1.484-.38-.752 0-1.429.202-2.03.603-.602.402-1.033.982-1.293 1.74s-.39 2.015-.39 3.771v8.886h-4.877v-18.289zm35.607 5.58l-4.425-.792c.498-1.768 1.354-3.077 2.569-3.927 1.214-.85 3.02-1.274 5.414-1.274 2.175 0 3.794.256 4.859.766 1.064.511 1.813 1.16 2.247 1.946.434.787.65 2.23.65 4.332l-.051 5.648c0 1.608.078 2.793.234 3.556.156.764.448 1.582.876 2.454h-4.824a17.702 17.702 0 0 1-.468-1.429 8.65 8.65 0 0 0-.174-.568c-.833.803-1.724 1.406-2.672 1.808a7.705 7.705 0 0 1-3.037.603c-1.897 0-3.393-.511-4.486-1.533-1.093-1.022-1.64-2.313-1.64-3.875 0-1.033.249-1.954.746-2.764.498-.81 1.195-1.43 2.091-1.86.897-.43 2.19-.806 3.879-1.128 2.279-.424 3.858-.82 4.737-1.188v-.482c0-.93-.231-1.593-.694-1.99-.463-.395-1.336-.593-2.62-.593-.868 0-1.545.169-2.03.508-.486.338-.88.933-1.18 1.782zm6.525 3.927c-.625.206-1.614.453-2.967.74-1.354.287-2.239.568-2.655.844-.636.448-.955 1.016-.955 1.705 0 .677.255 1.263.764 1.756.509.494 1.157.74 1.943.74.88 0 1.718-.286 2.517-.86.59-.436.977-.97 1.162-1.602.128-.413.191-1.2.191-2.359v-.964zm26.36 8.782h-4.877v-9.334c0-1.974-.104-3.251-.312-3.831-.208-.58-.547-1.03-1.015-1.352-.469-.322-1.033-.482-1.692-.482-.845 0-1.602.23-2.273.689a3.473 3.473 0 0 0-1.38 1.825c-.249.758-.373 2.158-.373 4.202v8.283h-4.876v-18.289h4.529v2.687c1.608-2.067 3.632-3.1 6.073-3.1 1.076 0 2.06.192 2.95.577.891.385 1.565.875 2.022 1.472.457.597.775 1.275.954 2.033.18.757.27 1.842.27 3.254v11.366zM313 356.043v-25.247h18.863v4.271h-13.727v5.597h12.772v4.254h-12.772v6.87h14.213v4.255H313zm21.327 0l6.646-9.42-6.368-8.87h5.952l3.262 5.03 3.436-5.03h5.726l-6.247 8.663 6.82 9.627h-5.987l-3.748-5.666-3.783 5.666h-5.71zm21.969-18.29h4.546v2.687c.59-.918 1.389-1.665 2.395-2.239 1.006-.574 2.123-.86 3.35-.86 2.14 0 3.956.832 5.448 2.496 1.492 1.665 2.239 3.984 2.239 6.958 0 3.054-.752 5.427-2.256 7.12-1.504 1.694-3.326 2.54-5.467 2.54-1.018 0-1.94-.2-2.767-.602-.828-.402-1.698-1.09-2.612-2.066V363h-4.876v-25.246zm4.824 8.835c0 2.055.41 3.574 1.232 4.555.821.982 1.822 1.473 3.002 1.473 1.134 0 2.077-.451 2.829-1.352.752-.902 1.128-2.38 1.128-4.435 0-1.917-.388-3.34-1.163-4.27-.775-.93-1.735-1.396-2.88-1.396-1.192 0-2.181.457-2.968 1.37-.787.912-1.18 2.264-1.18 4.055zm21.691 9.455h-4.876v-18.29h4.53v2.601c.774-1.228 1.471-2.038 2.09-2.428.62-.39 1.322-.586 2.109-.586 1.11 0 2.18.304 3.21.913l-1.51 4.22c-.821-.529-1.585-.793-2.29-.793-.683 0-1.261.187-1.736.56-.474.373-.847 1.047-1.119 2.023-.272.976-.408 3.02-.408 6.131v5.649zm19.835-5.821l4.859.81c-.625 1.767-1.611 3.113-2.96 4.038-1.347.924-3.033 1.386-5.058 1.386-3.204 0-5.576-1.04-7.114-3.117-1.215-1.665-1.822-3.766-1.822-6.303 0-3.031.798-5.405 2.394-7.121 1.597-1.717 3.616-2.575 6.057-2.575 2.741 0 4.905.899 6.49 2.695 1.584 1.797 2.342 4.55 2.273 8.258h-12.217c.035 1.435.428 2.552 1.18 3.35.752.797 1.69 1.196 2.811 1.196.764 0 1.406-.206 1.927-.62.52-.413.914-1.079 1.18-1.997zm.277-4.891c-.034-1.4-.399-2.466-1.093-3.195-.694-.729-1.539-1.093-2.533-1.093-1.065 0-1.944.384-2.638 1.154-.694.769-1.036 1.814-1.024 3.134h7.288zm7.098 5.494l4.893-.741c.209.941.63 1.656 1.267 2.144.636.488 1.527.732 2.672.732 1.261 0 2.21-.23 2.846-.689.428-.321.642-.752.642-1.291 0-.368-.115-.672-.347-.913-.243-.23-.786-.442-1.63-.637-3.934-.861-6.427-1.648-7.48-2.36-1.458-.987-2.187-2.359-2.187-4.116 0-1.584.631-2.916 1.892-3.995 1.261-1.08 3.216-1.619 5.865-1.619 2.522 0 4.396.408 5.623 1.223 1.226.815 2.07 2.02 2.533 3.616l-4.598.844c-.197-.712-.57-1.257-1.12-1.636-.55-.379-1.333-.568-2.35-.568-1.285 0-2.205.178-2.76.534-.37.252-.555.58-.555.981 0 .345.162.638.486.879.44.321 1.957.775 4.555 1.36 2.597.586 4.41 1.303 5.44 2.153 1.018.86 1.527 2.06 1.527 3.6 0 1.675-.706 3.116-2.117 4.322-1.412 1.205-3.5 1.808-6.265 1.808-2.51 0-4.497-.505-5.96-1.516-1.464-1.01-2.421-2.382-2.872-4.115zm19.765 0l4.893-.741c.209.941.63 1.656 1.267 2.144.636.488 1.527.732 2.672.732 1.261 0 2.21-.23 2.846-.689.428-.321.642-.752.642-1.291 0-.368-.115-.672-.347-.913-.243-.23-.786-.442-1.63-.637-3.934-.861-6.427-1.648-7.48-2.36-1.458-.987-2.186-2.359-2.186-4.116 0-1.584.63-2.916 1.891-3.995 1.261-1.08 3.216-1.619 5.865-1.619 2.522 0 4.396.408 5.623 1.223 1.226.815 2.07 2.02 2.533 3.616l-4.598.844c-.197-.712-.57-1.257-1.12-1.636-.549-.379-1.333-.568-2.35-.568-1.285 0-2.205.178-2.76.534-.37.252-.555.58-.555.981 0 .345.162.638.486.879.44.321 1.958.775 4.555 1.36 2.597.586 4.41 1.303 5.44 2.153 1.018.86 1.527 2.06 1.527 3.6 0 1.675-.706 3.116-2.117 4.322-1.411 1.205-3.5 1.808-6.265 1.808-2.51 0-4.497-.505-5.96-1.516-1.464-1.01-2.421-2.382-2.872-4.115z" />
  </g>
</svg>
