<svg xmlns="http://www.w3.org/2000/svg" width="500" height="500">
  <g fill="none" fill-rule="evenodd">
    <rect width="500" height="500" fill="#CAA600" rx="53" />
    <path fill="#FFF"
      d="M324.5 208.8H224.4l-13.1 18.4h66.4s6.2.6 6.5 6.2c.3 5.6-2.4 7.4-8.8 7.4h-73.7l-36.1 50.4H221l19.4-30.3s32.7 1.5 62.1 0 37.7-23.3 37.7-23.3c12.6-24.6-15.7-28.8-15.7-28.8z" />
    <path fill="#000" fill-rule="nonzero"
      d="M462 208.8h-54.5l-23.2 17-10-17h-53l25.9 44.2-52.2 38.2h53.6l14.7-10.6 6.2 10.6h53.3l-22.2-37.8 61.4-44.6zm-257.1 0H95.8L38 291.1h52.6l21.6-29.6 17.7 29.6h54.3l-18.6-30.5s38-1.3 49.5-30.9c0 0 4-20.9-10.2-20.9zm-42.3 32.8h-35.7l8.4-13.7h30.9c-.1 0 6.1 10.6-3.6 13.7z" />
  </g>
</svg>
