<svg xmlns="http://www.w3.org/2000/svg" width="500" height="500">
  <defs />
  <path fill="#eb7022" fill-rule="evenodd"
    d="M53 0h394a53 53 0 0153 53v394a53 53 0 01-53 53H53a53 53 0 01-53-53V53A53 53 0 0153 0z" />
  <path fill="#902682"
    d="M46.4 305.1S93.7 205 176.9 152.5s115.5-51 115.5-51V80.1l109.5 75.7s-97.9-17.6-192 19.1C138.7 203.1 46.4 305.1 46.4 305.1z" />
  <path fill="#fff"
    d="M191.5 222.5l21.4-18.7s-22.5-31.5-65.2-19.9-44.2 54.5-33.4 66.9 21 19.4 37.9 21.6 17.6 8.2 17.6 17.2-17.2 18.7-32.6 15.7-26.2-15.7-26.2-15.7L89.6 308s14.6 28.1 52.5 26.2 54.7-19.5 57.7-33.4 9-46.1-31.8-54.9c-61-13.5-3.1-59.6 23.5-23.4zM295.4 182.7h-23.6L189.9 332h34.9l13.2-27.3 44.1-.3 4.5 27.6h32.1zm-41.1 93l20-40.3 6.2 40.3zM418.3 182.7H353L324.3 332h31.8l10.7-56.2s79.9 12.9 81-47c0-44.7-29.5-46.1-29.5-46.1zm-45.9 63.8l6.2-36s24.7.1 28.2.5 10.3 5.4 10.5 16.2c-.4 31.1-44.9 19.3-44.9 19.3z" />
  <path fill="#902682"
    d="M61.8 377.5l7.7-36.3h26.4l-.9 4.1H73.5l-2.4 11.3h21l-.9 4.1h-21l-2.6 12.6h23l-.9 4.1H61.8zM93.6 377.5l11.5-13.3-6.6-12.9h5l2.2 4.7 2.2 5 7.6-9.7h5.5l-11 13.2 6.7 13h-5l-2.6-5.3a45 45 0 01-1.9-4.2l-7.9 9.6h-5.7zM118.7 387.6l7.7-36.4h4.2l-.8 3.7a14.3 14.3 0 014.2-3.3 8.6 8.6 0 013.9-.9 8.3 8.3 0 016.3 2.7c1.7 1.8 2.5 4.4 2.5 7.8a20.4 20.4 0 01-1.4 7.5 14.3 14.3 0 01-3.4 5.4 13 13 0 01-4 3 10.7 10.7 0 01-4.2 1c-3.2 0-5.6-1.6-7.4-4.8l-3 14.3h-4.6zm8.9-20.9a13.1 13.1 0 00.4 4.1 5.7 5.7 0 002 2.6 5.2 5.2 0 003.3 1c2.6 0 4.7-1.4 6.3-4.3a18.3 18.3 0 002.4-8.9 7.7 7.7 0 00-1.6-5.2 5.2 5.2 0 00-4-1.8 6.2 6.2 0 00-3.2.9 8.7 8.7 0 00-2.7 2.7 20 20 0 00-2.1 4.4 17.1 17.1 0 00-.8 4.5zM149.3 377.5l5.5-26.3h4l-1.1 5.4a20.4 20.4 0 014-4.5 6.4 6.4 0 014-1.5 7.1 7.1 0 013.3 1l-1.8 4.2a4 4 0 00-2.6-.8c-1.6 0-3.2.9-4.9 2.6s-3 4.9-3.9 9.4l-2.2 10.5h-4.3zM185.8 368.5l4.4.4a13 13 0 01-4.4 6.2 12.4 12.4 0 01-8.1 2.9 10.8 10.8 0 01-5.4-1.3 8.7 8.7 0 01-3.7-3.9 12.5 12.5 0 01-1.3-5.9 19.2 19.2 0 012-8.4 14 14 0 015.2-6 12.9 12.9 0 016.9-2 10.3 10.3 0 017.6 2.9c1.9 1.9 2.8 4.6 2.8 8a28 28 0 01-.3 4H172a7 7 0 00-.1 1.4 8.3 8.3 0 001.7 5.6 5.2 5.2 0 004.2 1.9 8.4 8.4 0 004.6-1.5 10 10 0 003.4-4.3zm-13.2-6.5h14.9v-1a7.6 7.6 0 00-1.7-5.2 5.7 5.7 0 00-4.4-1.8 8.3 8.3 0 00-5.3 2 13.5 13.5 0 00-3.5 6zM195.1 368.5l4.5-.3a8.1 8.1 0 00.6 3.3 4.3 4.3 0 002.2 2.2 7.6 7.6 0 003.8.9 7.1 7.1 0 004.5-1.2 3.5 3.5 0 001.5-2.8 3.3 3.3 0 00-.9-2.2c-.6-.7-2.1-1.5-4.5-2.6a49.5 49.5 0 01-4.6-2.1 7.2 7.2 0 01-2.5-2.4 5.7 5.7 0 01-.8-3.2 6.6 6.6 0 012.5-5.3c1.7-1.5 4-2.2 7-2.2 3.3 0 5.9.8 7.6 2.3a8 8 0 012.7 6l-4.4.3a5.2 5.2 0 00-1.7-3.8 7 7 0 00-4.5-1.4 5.3 5.3 0 00-3.6 1.1 2.7 2.7 0 00-.2 4.5 20.7 20.7 0 003.9 2 27.5 27.5 0 016.5 3.5 6.7 6.7 0 012.1 5 6.8 6.8 0 01-1.2 3.8 7.5 7.5 0 01-3.7 3 13.4 13.4 0 01-5.8 1.1 13.1 13.1 0 01-7.8-2.3c-2.3-1.4-3.3-3.8-3.2-7.2zM220.7 368.5l4.5-.3a8.1 8.1 0 00.6 3.3 4.3 4.3 0 002.2 2.2 7.6 7.6 0 003.8.9 7.1 7.1 0 004.5-1.2 3.5 3.5 0 001.5-2.8 3.3 3.3 0 00-.9-2.2c-.6-.7-2.1-1.5-4.5-2.6a49.5 49.5 0 01-4.6-2.1 7.2 7.2 0 01-2.5-2.4 5.7 5.7 0 01-.8-3.2 6.6 6.6 0 012.5-5.3c1.7-1.5 4-2.2 7-2.2 3.3 0 5.9.8 7.6 2.3a8 8 0 012.7 6l-4.4.3a5.2 5.2 0 00-1.7-3.8 7 7 0 00-4.5-1.4 5.3 5.3 0 00-3.6 1.1 2.7 2.7 0 00-.2 4.5 20.7 20.7 0 003.9 2 27.5 27.5 0 016.5 3.5 6.7 6.7 0 012.1 5 6.8 6.8 0 01-1.2 3.8 7.5 7.5 0 01-3.7 3 13.4 13.4 0 01-5.8 1.1 13.1 13.1 0 01-7.8-2.3c-2.3-1.4-3.3-3.8-3.2-7.2zM289.1 364.7l4.8.7a19.5 19.5 0 01-6.7 9.5 16.5 16.5 0 01-9.9 3.2c-4.4 0-8-1.3-10.6-4s-3.9-6.5-3.9-11.6a23.2 23.2 0 015.9-16.2 17.1 17.1 0 0113.1-5.7c3.9 0 7 1 9.4 3.1a12.4 12.4 0 014.2 8.3l-4.6.4a10 10 0 00-3-5.9 8.5 8.5 0 00-5.8-1.9c-4.5 0-8.1 2-10.9 5.9a20.4 20.4 0 00-3.6 12.1c0 3.7.9 6.6 2.8 8.5a9.1 9.1 0 007.2 2.9 10.7 10.7 0 006.9-2.5 11.7 11.7 0 004.7-6.8zM297.7 367.5a18.3 18.3 0 014.6-12.8 12.6 12.6 0 019.9-4.2 10.2 10.2 0 017.7 3 10.8 10.8 0 012.9 8 19.8 19.8 0 01-1.8 8.4 13.5 13.5 0 01-5.3 6 13.7 13.7 0 01-7.2 2.1 11.6 11.6 0 01-5.6-1.3 9.3 9.3 0 01-3.9-3.7 10.7 10.7 0 01-1.3-5.5zm4.5-.4c0 2.5.6 4.4 1.8 5.6a5.9 5.9 0 004.6 1.9 7.5 7.5 0 002.9-.6 8.7 8.7 0 002.6-1.8 14 14 0 002.1-2.7 16.4 16.4 0 001.4-3.3 16 16 0 00.8-4.7 7.8 7.8 0 00-1.8-5.5 6 6 0 00-4.6-2 7.6 7.6 0 00-3.9 1 10.8 10.8 0 00-3.2 2.9 15.5 15.5 0 00-2.1 4.5 21.6 21.6 0 00-.6 4.7zM343.4 372.7c-3.2 3.6-6.4 5.3-9.8 5.3a7.6 7.6 0 01-5-1.7 5.6 5.6 0 01-1.9-4.3 38.7 38.7 0 01.8-5.7l3.2-15.2h4.5l-3.5 16.8a16 16 0 00-.4 3.3 2.9 2.9 0 00.9 2.3 3.6 3.6 0 002.7.8 8 8 0 003.7-.9 9.3 9.3 0 003.1-2.5 11.2 11.2 0 002.1-3.7 29.3 29.3 0 001.3-4.8l2.4-11.4h4.5l-5.5 26.3h-4.2zM353.7 377.5l5.5-26.3h4l-1.1 5.4a20.4 20.4 0 014-4.5 6.4 6.4 0 014-1.5 7.1 7.1 0 013.3 1l-1.8 4.2a4 4 0 00-2.6-.8c-1.6 0-3.2.9-4.9 2.6s-3 4.9-3.9 9.4l-2.2 10.5h-4.3zM370.6 377.5l5.5-26.3h4.5l-5.5 26.3zm6.5-31.2l1.1-5.1h4.5l-1.1 5.1zM401.5 368.5l4.4.4a13 13 0 01-4.4 6.2 12.4 12.4 0 01-8.1 2.9 10.8 10.8 0 01-5.4-1.3 8.7 8.7 0 01-3.7-3.9 12.5 12.5 0 01-1.3-5.9 19.2 19.2 0 012-8.4 14 14 0 015.2-6 12.9 12.9 0 016.9-2 10.3 10.3 0 017.6 2.9c1.9 1.9 2.8 4.6 2.8 8a28 28 0 01-.3 4h-19.5a7 7 0 00-.1 1.4 8.3 8.3 0 001.7 5.6 5.2 5.2 0 004.2 1.9 8.4 8.4 0 004.6-1.5 8.8 8.8 0 003.4-4.3zm-13.1-6.5h14.9v-1a7.6 7.6 0 00-1.7-5.2 5.7 5.7 0 00-4.4-1.8 8.3 8.3 0 00-5.3 2 13.5 13.5 0 00-3.5 6zM410.5 377.5l5.5-26.3h4l-1.1 5.4a20.4 20.4 0 014-4.5 6.4 6.4 0 014-1.5 7.1 7.1 0 013.3 1l-1.8 4.2a4 4 0 00-2.6-.8c-1.6 0-3.2.9-4.9 2.6s-3 4.9-3.9 9.4l-2.2 10.5h-4.3z" />
</svg>
