<svg xmlns="http://www.w3.org/2000/svg" width="500" height="500" viewBox="0 0 500 500" fill="none">
  <path
    d="M447 0H53C23.7289 0 0 23.7289 0 53V447C0 476.271 23.7289 500 53 500H447C476.271 500 500 476.271 500 447V53C500 23.7289 476.271 0 447 0Z"
    fill="#202020" />
  <path d="M158.913 158.19H345.895L348.895 139.254H177.846L158.913 158.19Z" fill="#EF4941" />
  <path
    d="M213.624 103.408L196.738 120.299H352.259L354.286 107.6C354.406 106.829 354.358 106.041 354.144 105.29C353.93 104.539 353.556 103.843 353.047 103.251C352.539 102.658 351.909 102.182 351.198 101.856C350.488 101.53 349.716 101.362 348.934 101.362H218.55C216.702 101.369 214.932 102.104 213.624 103.408Z"
    fill="#EF4941" />
  <path d="M303.751 196.062L284.817 177.126H158.913L177.846 196.062H303.751Z" fill="#EF4941" />
  <path d="M196.738 215L215.671 233.936H341.576L322.643 215H196.738Z" fill="#EF4941" />
  <path d="M341.759 252.872H154.696L151.574 271.808H322.825L341.759 252.872Z" fill="#EF4941" />
  <path
    d="M148.453 290.765L146.426 303.241C146.293 304.035 146.335 304.85 146.549 305.626C146.763 306.402 147.144 307.123 147.665 307.738C148.186 308.353 148.834 308.847 149.565 309.186C150.296 309.525 151.093 309.701 151.899 309.702H282.102C283.946 309.698 285.715 308.97 287.027 307.676L303.913 290.765H148.453Z"
    fill="#EF4941" />
  <path d="M213.877 434H201.961L212.406 371.885H224.322L213.877 434Z" fill="#FCF7F1" />
  <path
    d="M236.238 371.877C223.062 371.877 210.609 382.557 208.399 395.729C206.188 408.902 215.045 419.574 228.206 419.574C241.367 419.574 253.836 408.902 256.046 395.729C258.256 382.557 249.391 371.877 236.238 371.877ZM230.214 407.655C223.638 407.655 219.202 402.312 220.307 395.729C221.412 389.147 227.646 383.804 234.23 383.804C240.815 383.804 245.243 389.139 244.138 395.729C243.033 402.32 236.791 407.655 230.214 407.655Z"
    fill="#FCF7F1" />
  <path d="M266.53 434H254.615L265.067 371.885H276.983L266.53 434Z" fill="#FCF7F1" />
  <path
    d="M288.897 371.877C275.736 371.877 263.268 382.557 261.05 395.729C258.832 408.902 267.704 419.574 280.865 419.574C294.026 419.574 306.487 408.902 308.673 395.729C310.862 382.557 302.05 371.877 288.897 371.877ZM282.873 407.655C276.289 407.655 271.86 402.312 272.965 395.729C274.071 389.147 280.305 383.804 286.881 383.804C293.458 383.804 297.894 389.139 296.789 395.729C295.684 402.32 289.45 407.655 282.873 407.655Z"
    fill="#FCF7F1" />
  <path
    d="M346.399 402.257C345.864 402.9 345.283 403.499 344.654 404.049C342.139 406.31 338.895 407.59 335.518 407.655C328.933 407.655 324.497 402.312 325.61 395.729C326.722 389.147 332.949 383.804 339.525 383.804C346.101 383.804 350.546 389.139 349.433 395.729C349.165 397.305 348.615 398.819 347.815 400.201H360.174C360.697 398.749 361.092 397.252 361.347 395.729C363.567 382.557 354.695 371.877 341.534 371.877C328.373 371.877 315.912 382.557 313.695 395.729C311.476 408.902 320.347 419.574 333.508 419.574C340.157 419.447 346.545 416.963 351.534 412.563C353.248 411.101 354.796 409.455 356.149 407.655L346.399 402.257Z"
    fill="#FCF7F1" />
  <path d="M359.255 400.201H314.275L315.78 391.258H360.763L359.255 400.201Z" fill="#FCF7F1" />
  <path d="M374.244 419.581H362.33L370.362 371.885H382.27L374.244 419.581Z" fill="#FCF7F1" />
  <path
    d="M394.184 371.877L366.345 395.729L394.184 371.877ZM378.259 395.729C379.366 389.139 385.598 383.804 392.177 383.804L394.184 371.877C381.053 371.877 368.601 382.557 366.345 395.729H378.259ZM378.259 395.729L393.181 377.813L378.259 395.729Z"
    fill="#FCF7F1" />
  <path d="M152.743 419.582H140.827L151.591 354.062H163.771L152.743 419.582Z" fill="#FCF7F1" />
  <path
    d="M172.683 371.877C154.782 371.877 147.053 382.557 144.843 395.737L140.827 419.574H152.743L157.257 392.754C157.726 390.3 159.015 388.079 160.911 386.454C162.808 384.829 165.199 383.897 167.694 383.811C172.628 383.811 175.959 387.815 175.126 392.754L170.612 419.582H182.52L187.54 389.77C189.206 379.885 182.59 371.877 172.683 371.877Z"
    fill="#FCF7F1" />
  <path d="M199.417 419.581H187.509L195.533 371.885H207.449L199.417 419.581Z" fill="#FCF7F1" />
  <path
    d="M203.348 366.145C206.692 366.145 209.403 363.431 209.403 360.084C209.403 356.737 206.692 354.024 203.348 354.024C200.003 354.024 197.292 356.737 197.292 360.084C197.292 363.431 200.003 366.145 203.348 366.145Z"
    fill="#FCF7F1" />
  <path
    d="M133.262 370.631C130.616 367.266 126.187 365.552 121.378 365.552C116.708 365.552 112.038 367.788 112.038 372.781C112.038 377.595 116.062 379.589 122.203 382.082L122.545 382.222C129.799 385.128 138.827 388.742 138.827 400.037C138.889 402.838 138.293 405.613 137.089 408.142C135.885 410.67 134.105 412.881 131.892 414.596C127.783 417.844 122.203 419.644 116.178 419.644C112.12 419.668 108.101 418.849 104.374 417.24C100.648 415.631 97.2945 413.267 94.5264 410.296L94.1841 409.922L102.971 401.136L103.337 401.58C104.998 403.567 107.071 405.17 109.412 406.279C111.752 407.387 114.305 407.973 116.894 407.998C121.564 407.998 126.67 405.864 126.67 401.182C126.67 396.914 122 394.951 116.552 392.653L115.96 392.403C109.205 389.568 99.9511 385.673 99.9511 373.84C99.9511 360.816 111.034 354 121.985 354H122.203C129.752 354 136.437 356.758 141.38 362.499L133.262 370.631Z"
    fill="#FCF7F1" />
</svg>
