<svg xmlns="http://www.w3.org/2000/svg" width="500" height="500">
  <g fill="none" fill-rule="evenodd">
    <rect width="500" height="500" fill="#D1252D" rx="53" />
    <path fill="#FFF" fill-rule="nonzero"
      d="M321.2 285.7v-63c11.9-.1 23.8-1.7 35.2 3 10.7 4.5 13.9 14.6 12.9 23.5-1.4 11.9-8.6 19.2-19.3 20.8-2.9.4-5.8.9-9.2 1.5v14.2h-19.6zm19.7-31.5c6.8-.9 8.2-1.8 8.2-7.4 0-3.9-2.6-6.7-8.2-6.2v13.6zm-69.3 24.7c-11.4 9.9-32.8 10-44.7-1.8-10.9-10.8-11.7-31.4-2.2-42.9 11.4-13.7 31.7-15 46-4.9-2.9 5.2-5.9 10.5-8.8 15.7-11.5-5-18-4.3-22.6 2.1-3.3 4.6-2.8 11.4 1 15.6 5.7 6.2 12.7 6.4 22.4.4 3 5.3 6 10.5 8.9 15.8zm5.8-56.1h34v16.1H296v7.3h15.3v15.7H296v7.3h16.4v16.4h-35v-62.8zm-131.2 61.8v-18.1c3.6.4 6.9 1.1 10.3 1.1 2.1 0 5.4.4 6.3-1.5.7-1.5-1.3-4-2.6-5.3-2.6-2.8-5.9-4.9-8.5-7.7-5.4-6-7.5-12.8-3.9-20.6 3.5-7.5 10.1-9.7 17.6-10 3.9-.1 7.9.7 12 1.1v17c-11.5-.9-12 .5-9.7 2.4 1.9 1.7 3.4 2.8 5.3 4.4 6.1 5 10.5 10.7 10.8 19.2.3 12.1-7.4 18.3-17.9 19.1-6.4.6-13-.6-19.7-1.1zm319.3-61.7v16.5c-3.3.1-6.8 0-10.6 0v46.3H436v-46.5h-10.6v-16.4c13 .1 26.2.1 40.1.1zm-255.1 62.9h-19.3v-63.1h19.3v63.1zm219 2.1h-46.7c9.5-5.8 17.9-10.9 26.7-16.2-4-6.1-7.9-12-12-18.1 2.7-2.3 5.5-4.6 8.6-7.3 7.8 13.8 15.4 27.4 23.4 41.6zm-68.3-.8c5.7-10.9 11.4-21.9 17.4-33.6 2.9 4.3 8.9 13.1 8.9 13.1l-16.7 20.5c0 .1-4.4.1-9.6 0zm33-64.1c2.5 3.9 4.4 7 6.7 10.6-5.5 2.5-10.7 4.9-16 7.4-.3-.2-.5-.4-.8-.7 3.2-5.5 6.4-11 10.1-17.3z" />
    <path fill="#A01E25"
      d="M95.065 295.282l-56.08-20.232c-4.612-1.67-6.983-6.676-5.259-11.14l20.864-54.275c1.723-4.465 6.896-6.759 11.51-5.09l56.079 20.192c4.612 1.668 6.983 6.675 5.259 11.138l-20.864 54.276c-1.724 4.505-6.897 6.8-11.51 5.131h.001z" />
    <path fill="#D1252D" d="M40.163 267.86l21.079-54.733c.646-1.71 2.629-2.544 4.353-1.919l56.554 20.4" />
    <path fill="#FFF" d="M73.483 235.334l39.398-.334-25.431 12.474 3.362 15.102-40.648 2.002 24.14-12.766z" />
  </g>
</svg>
