<svg xmlns="http://www.w3.org/2000/svg" width="500" height="500">
  <g fill="none" fill-rule="evenodd">
    <rect width="500" height="500" fill="#2B3C67" rx="53" />
    <path fill="#ED1C24"
      d="M61.535 272c7.38 6.864 17.395 10.932 28.465 10.932 10.806 0 20.822-4.068 28.465-10.932H124c-8.434 9.153-20.558 15-34 15s-25.566-5.847-34-15h5.535zm7.643 0c1.318 1.017 2.9 1.78 4.48 2.542 1.055-1.017 2.11-1.78 3.427-2.542h4.744c-.263 0-.527.254-.527.254-.79.254-1.581.763-2.108 1.017a11.694 11.694 0 0 0-2.9 2.034c4.218 1.78 8.962 2.797 13.97 2.797 4.744 0 9.488-1.017 13.969-2.797-1.055-.763-1.845-1.525-2.9-2.034-.79-.508-1.317-.763-2.108-1.017-.264 0-.264-.254-.527-.254h4.744c1.054.763 2.372 1.525 3.426 2.542 1.582-.762 3.163-1.525 4.48-2.542h3.69c-2.108 1.525-4.216 3.05-6.588 4.068-.791.508-1.582.763-2.372 1.017-4.745 2.034-10.016 3.05-15.55 3.05-5.536 0-10.807-1.016-15.551-3.05-.791-.254-1.582-.763-2.372-1.017-2.372-1.017-4.481-2.543-6.59-4.068h3.163zM52.159 257c2.34 5.5 5.979 10.75 10.398 14.75h-5.46A45.817 45.817 0 0 1 48 257h4.159zm5.199 0c1.82 4 4.419 7.5 7.538 10.25 1.56-1.75 3.38-3.5 5.459-4.75-1.04-1.75-1.82-3.5-2.6-5.5h2.08c.52 1.5 1.3 3 2.08 4.25.78-.5 1.559-.75 2.079-1.25l-2.86-3h4.68l1.04 1.75c.52-.25 1.039-.5 1.819-.75-.26-.25-.26-.75-.26-1h1.82c0 .25 0 .25.26.5.52-.25 1.04-.25 1.819-.5h16.636c.52.25 1.04.25 1.82.5 0-.25 0-.25.26-.5h1.82c0 .25-.26.75-.26 1 2.599 1 4.678 2 7.018 3.25.78-1.25 1.56-2.75 2.079-4.25h2.08c-.78 2-1.56 3.75-2.6 5.5 1.82 1.5 3.9 3 5.459 4.75 3.12-3 5.719-6.5 7.538-10.25h2.34c-2.08 4.5-4.94 8.5-8.319 12l-1.56 1.5c-.519.5-1.039.75-1.559 1.25h-3.639c1.3-.75 2.6-1.75 3.9-2.75-1.56-1.75-3.12-3-4.94-4.25-1.82 2.75-4.159 5.25-6.498 7.25h-4.679c-.78-.25-1.3-.5-2.08-.75-.52-.25-1.04-.25-1.82-.5-1.299-.25-2.858-.5-4.158-.5-1.3 0-2.86.25-4.16.5-.52.25-1.039.25-1.819.5s-1.3.5-2.08.75h-4.678c-2.6-2-4.68-4.25-6.499-7.25-1.82 1.25-3.379 2.75-4.938 4.25 1.04 1 2.599 2 3.899 2.75h-3.64c-.52-.5-1.04-.75-1.56-1.25l-1.559-1.5c-3.379-3.5-6.498-7.5-8.318-12h1.56zM133 257a45.817 45.817 0 0 1-9.098 14.75h-5.459c4.42-4 8.059-9 10.398-14.75H133zm-60.046 6.5c1.82 3 4.16 5.5 6.759 7.25 1.04-.5 2.339-1 3.379-1.5-1.56-2.25-2.86-5.25-3.9-8.75-.26.25-.78.25-1.04.5l.52.75h-2.079c-1.04.25-2.34 1-3.639 1.75zm28.333 7.25c2.6-1.75 4.68-4.25 6.759-7.25-2.08-1.25-4.16-2.25-6.239-3-1.04 3.5-2.34 6.5-3.899 8.75 1.04.5 2.08.75 3.38 1.5zM81.012 260c1.04 3.75 2.34 6.75 3.9 9 1.819-.5 3.638-.75 5.718-.75 1.82 0 3.9.25 5.719.75 1.56-2.25 2.859-5.25 3.899-9-3.12-1-6.239-1.5-9.358-1.5-3.64 0-6.759.5-9.878 1.5zM70.506 233l-1.568 2.455 8.363.545c0-.818.262-1.91.262-2.727h1.83c0 .818 0 1.909-.262 3l11.76.545 3.136-3.545h3.92L94.811 239l3.66 6h-3.66l-3.92-3.545-11.499.545c.261 5.455.784 10.364 1.568 14.727h-1.83c-.783-4.363-1.567-9.545-1.567-14.727l-9.409.545L76.517 257h-4.704l-1.568-1.636h-.523c.262.545.262 1.09.523 1.636h-2.09c-.262-.545-.262-1.09-.523-1.636h-.523l-1.83-2.728 1.83-.272c0-.546-.261-.819-.261-1.364l-.784-.818h-3.136l-2.091-3 2.613-.273-3.659-4.09h-5.226l-2.091.272H49.86l-3.92.273c-2.875.272-5.488.272-7.84.272-1.045 0-3.92.273-2.875-2.181.523-1.91 2.875-4.637 4.704-5.455 2.352-1.09 3.66-1.91 6.011-1.91 4.704-.272 14.897 1.092 14.897 1.092l1.83-2.182h7.84zm34.236 0c.262 1.09.262 2.455.262 3.818h-1.83c0-1.363 0-2.727-.261-3.818h1.83zm11.76 0c.262 1.09.262 2.455.262 3.818h-2.09c0-1.363-.262-2.727-.262-3.818h2.09zm13.59 0c.262 1.09.262 2.455.523 3.818h-2.09c-.262-1.363-.262-2.727-.523-3.818h2.09zm6.273 0c.261 1.09.261 2.455.522 3.818h-3.92c0-1.363-.261-2.727-.522-3.818h3.92zm-87.811 23.727c-1.046-3-1.83-6.272-2.352-9.545h3.92c.522 3.273 1.568 6.545 2.613 9.545h-4.181zm6.795 0c-1.307-3-2.091-6.272-2.875-9.545h2.09c1.046 3.273 2.091 6.545 3.398 9.545h-2.613zm27.44 0c2.614-.818 5.489-1.09 8.364-1.09 2.874 0 5.75.272 8.363 1.09H82.79zm18.556 0c.784-4.363 1.307-9 1.568-14.182h1.83c-.262 5.182-.785 9.819-1.569 14.182h-1.83zm10.715 0c1.568-4.363 2.613-9 2.875-14.182h2.09c-.26 4.91-1.306 9.819-2.613 14.182h-2.352zm12.544 0c1.83-4.363 3.137-9.272 3.398-14.182h2.09c-.26 4.91-1.567 9.819-3.397 14.182h-2.09zm5.227 0c1.83-4.363 2.875-9.272 3.136-14.182h3.92c-.26 5.182-1.306 9.819-2.874 14.182h-4.182zm-25.089-18.272H151v2.181h-46.258v-2.181z" />
    <path fill="#ED1C24"
      d="M61.22 233l1.31-1.538-2.617-.257 2.093-2.82h3.14c.261-.77.261-1.282.523-2.052h-1.047l1.831-2.564h.262c.785-2.307 1.832-4.359 2.878-6.41-1.831-1.538-3.924-3.077-5.494-4.872-4.971 4.872-8.372 11.026-10.204 17.949h-2.354c3.924-17.692 19.622-30.77 38.197-30.77 19.36 0 35.582 14.36 38.721 33.334h-2.354c-1.308-7.949-5.233-15.128-10.465-20.256-1.57 1.794-3.402 3.333-5.495 4.871 2.355 4.36 4.186 9.744 4.971 15.385h-2.093c-.785-5.385-2.354-10.256-4.447-14.359-2.093 1.538-4.448 2.564-7.064 3.333.785 3.334 1.308 6.923 1.57 10.77h-1.832c-.262-3.847-.785-7.18-1.57-10.257-3.14 1.026-6.54 1.539-10.203 1.539-3.401 0-6.803-.513-10.204-1.539-.785 3.077-1.308 6.667-1.57 10.257h-1.83c.26-3.847.784-7.436 1.569-10.77-.523-.256-1.047-.512-1.57-.512L68.547 233H61.22zm31.92 0l4.186-.256V233H93.14zm37.936 0c-3.14-20.256-20.407-35.897-41.338-35.897-19.883 0-36.89 14.359-40.814 33.333H45C48.924 209.154 67.5 193 89.738 193c23.024 0 42.122 17.436 45.262 40h-3.924zM70.64 215.308c1.83-2.82 4.186-5.385 6.54-7.436-1.046-.77-2.354-1.539-3.4-2.564-2.879 1.538-5.757 3.333-8.111 5.384 1.308 2.052 3.14 3.334 4.97 4.616zm8.372-8.718c.785.513 1.308.769 2.093 1.025.785.513 1.831.77 2.616 1.026.523.256 1.046.256 1.831.513 1.308.256 2.878.513 4.186.513 1.309 0 2.878-.257 4.186-.513.524-.257 1.047-.257 1.832-.513 1.046-.256 1.831-.513 2.616-1.026.785-.256 1.57-.769 2.093-1.025 1.047-.77 2.093-1.539 2.878-2.308-4.186-1.795-8.895-2.564-13.866-2.564-4.71 0-9.419 1.026-13.867 2.564 1.57 1.026 2.355 1.795 3.402 2.308zm0 2.564c-2.617 1.795-4.71 4.359-6.803 7.436.785.513 1.832 1.025 2.617 1.538l.523-.513h3.401l-1.047 1.795.785.257c1.047-3.59 2.355-6.667 3.925-8.975-1.047-.513-2.355-1.025-3.401-1.538zm-7.85 9.487c-.784 1.538-1.569 3.333-2.354 5.128h1.047l3.662-3.846c-1.046-.513-1.57-.77-2.354-1.282zm36.105-2.051c-1.831-3.077-4.186-5.641-6.54-7.436-1.047.513-2.355 1.025-3.401 1.538 1.57 2.308 2.877 5.385 3.924 8.975 2.093-.77 4.186-1.795 6.017-3.077zm-4.709-8.462c2.616 1.795 4.71 4.36 6.54 7.436 1.832-1.282 3.402-2.82 4.972-4.359-2.617-2.051-5.233-4.102-8.11-5.384-1.047.769-2.355 1.538-3.402 2.307zm-18.314 3.077c-1.57 2.308-2.878 5.385-3.924 9.23 3.14 1.027 6.279 1.54 9.418 1.54 3.402 0 6.541-.513 9.419-1.54-1.047-3.845-2.355-6.922-3.924-9.23-1.832.513-3.663.77-5.756.77-1.57-.257-3.401-.257-5.233-.77z" />
    <path fill="#FFF"
      d="M182.314 278l9.89-57.026H168L171.904 199h84.325l-3.904 21.974h-22.383L219.792 278h-37.478zm71.052 0l9.37-57.55h10.67c-6.506-1.83-10.93-5.493-10.93-9.678 0-6.017 9.108-10.987 20.3-10.987 11.19 0 20.3 4.97 20.3 10.987 0 4.185-4.424 7.847-10.931 9.678h8.328l-9.37 57.55h-37.737zm48.409 0l13.533-78.477h37.738L339.252 278h-37.477zm114.775 0l9.37-57.55h10.67c-6.506-1.83-10.93-5.493-10.93-9.678 0-6.017 9.109-10.987 20.3-10.987s20.04 4.97 20.04 10.987c0 4.185-4.424 7.847-10.931 9.678h8.328l-9.37 57.55H416.55z" />
    <path fill="#ED1C24" d="M377.675 200.57h43.392l-36.896 38.192L408.335 278h-45.47L340 240.07z" />
    <path fill="#FFF"
      d="M158 296.25h4.156l1.559 6.5 2.338-6.5h3.637l2.338 6.5 1.818-6.5h3.897l-3.897 10.5h-3.637l-2.338-6.25-2.078 6.25h-3.637L158 296.25zm25.977 0h3.897l1.818 6.5 2.338-6.5h3.637l2.338 6.5 1.819-6.5h3.896l-3.896 10.5h-3.637l-2.338-6.25-2.078 6.25h-3.897l-3.897-10.5zm25.978 0h4.156l1.559 6.5 2.338-6.5h3.637l2.338 6.5 1.818-6.5h3.897l-3.897 10.5h-3.897l-2.078-6.25-2.078 6.25h-3.637l-4.156-10.5zm25.977 6.5h4.416v4h-4.416v-4zm17.925-10.5v4h2.338v3h-2.338v3.5c0 .5 0 .75.26 1s.26.25.779.25c.26 0 .78-.25 1.299-.25l.26 2.75c-1.04.25-2.079.25-2.858.25-1.04 0-1.819-.25-2.338-.5-.52-.25-.78-.75-1.04-1.25-.259-.5-.259-1.25-.259-2.5v-3.75h-1.559v-3h1.559v-2l3.897-1.5zm10.65 0h4.157V295h-4.157v-2.75zm0 4h4.157v10.5h-4.157v-10.5zm12.99-4h4.155v7.5l3.118-3.5h5.195l-3.896 3.5 4.156 7h-4.676l-2.338-4.25-1.559 1.5v2.75h-4.156v-14.5zm20.261 0h4.157V295h-4.157v-2.75zm0 4h4.157v10.5h-4.157v-10.5zm12.99 0h3.896V298c.52-.75 1.039-1.25 1.818-1.5.52-.25 1.3-.5 2.078-.5 1.04 0 2.079.25 2.858 1 .52.75 1.039 1.75 1.039 3v6.75h-4.416V301c0-.75-.26-1-.52-1.5-.26-.25-.52-.5-1.039-.5-.52 0-1.039.25-1.299.5s-.52 1-.52 2v5h-4.156v-10.25h.26zm32.211 6.25h-8.313c.26.75.26 1 .52 1.5.52.5 1.039.75 1.559.75s.779 0 1.039-.25l.779-.75 4.156.25c-.52 1-1.298 1.75-2.338 2.25-.779.5-2.078.75-3.896.75-1.559 0-2.598-.25-3.377-.5-.78-.5-1.559-1-2.078-1.75-.52-.75-.78-1.75-.78-3 0-1.75.52-3 1.559-4s2.598-1.5 4.416-1.5c1.559 0 2.858.25 3.637.75.78.5 1.559 1 2.078 2 .52.75.78 2 .78 3.25v.25h.26zm-4.416-2c0-.75-.26-1.25-.78-1.75-.26-.25-.779-.5-1.298-.5-.78 0-1.3.25-1.559.75-.26.25-.52.75-.52 1.5h4.157zm17.405-8.25v4h2.338v3h-2.338v3.5c0 .5 0 .75.26 1s.26.25.779.25c.26 0 .78-.25 1.299-.25l.26 2.75c-1.04.25-2.079.25-2.858.25-1.039 0-1.818-.25-2.338-.5s-.78-.75-1.039-1.25c-.26-.5-.26-1.25-.26-2.5v-3.75h-1.558v-3h1.558v-2l3.897-1.5zm10.39 10.5h4.417v4h-4.416v-4zm21.043-.25l3.896.5c-.26.75-.52 1.5-1.039 2-.52.5-1.039 1-1.818 1.5-.78.25-1.819.5-2.858.5-1.039 0-2.078-.25-2.857-.25-.78-.25-1.559-.5-2.079-1-.52-.5-1.039-1-1.298-1.75-.26-.5-.52-1.5-.52-2.5s.26-2 .52-2.75c.26-.5.779-1 1.039-1.5.52-.5 1.039-.75 1.558-1 .78-.25 1.819-.5 3.118-.5 1.818 0 3.117.25 4.156.75.78.75 1.559 1.5 2.078 2.75l-3.896.5c-.26-.5-.26-.75-.78-1-.26-.25-.78-.25-1.299-.25-.779 0-1.299.25-1.558.75-.52.5-.78 1.25-.78 2.25 0 .75.26 1.5.78 2s1.039.75 1.558.75c.52 0 1.04-.25 1.3-.5.519-.25.779-.5.779-1.25zm11.69-1c0-1.5.519-3 1.558-4 1.04-1 2.598-1.5 4.676-1.5 2.078 0 3.897.5 4.936 1.75.779 1 1.299 2.25 1.299 3.75 0 1.75-.52 3-1.56 4-1.038 1-2.597 1.5-4.675 1.5-1.818 0-3.117-.5-4.156-1.25-1.56-1.25-2.079-2.5-2.079-4.25zm4.156 0c0 1 .26 1.75.52 2 .519.5.779.75 1.558.75.78 0 1.039-.25 1.559-.75s.52-1.25.52-2c0-1-.26-1.75-.52-2-.26-.5-.78-.75-1.559-.75-.52 0-1.04.25-1.559.75-.52.25-.52 1-.52 2zm16.106 1.25h4.416v4h-4.416v-4zm13.248-10.5h4.157V295h-4.157v-2.75zm0 4h4.157v10.5h-4.157v-10.5zm24.419-4v14.5h-3.897v-1.5c-.52.75-1.039 1-1.558 1.25-.52.25-1.3.5-2.078.5-1.56 0-2.598-.5-3.378-1.75-.779-1-1.039-2.5-1.039-4 0-1.75.52-3 1.3-4 .779-1 2.077-1.5 3.376-1.5.52 0 1.3 0 1.819.25.52.25 1.039.5 1.299 1v-5H457v.25zm-4.156 9.25c0-.75-.26-1.5-.52-1.75-.26-.5-.78-.5-1.299-.5-.52 0-.78.25-1.299.5-.26.5-.52 1-.52 2 0 .75.26 1.5.52 1.75.26.5.78.5 1.3.5.519 0 1.038-.25 1.298-.5.26-.5.52-1.25.52-2z" />
  </g>
</svg>
