<svg xmlns="http://www.w3.org/2000/svg" width="500" height="500">
  <g fill="none" fill-rule="evenodd">
    <rect width="500" height="500" fill="#FFD938" rx="53" />
    <path fill="#C42D36"
      d="M414.277 289.052a8.069 8.069 0 013.485 3.019 8.306 8.306 0 011.238 4.35v.159a11.66 11.66 0 01-.323 2.626h-12.835c.275 1.489 1.3 2.233 3.074 2.233a6.51 6.51 0 003.895-1.4l4.125 3.85c-2.18 1.994-5.089 3.109-8.112 3.109h-.185l-.344.002c-1.818 0-3.62-.346-5.296-1.01-3.02-1.174-4.999-3.979-4.999-7.096 0-.07.002-.143.004-.214l-.002-.155c0-1.872.492-3.714 1.423-5.358a9.891 9.891 0 013.9-3.809 11.587 11.587 0 015.457-1.358l.224.002c.088-.002.178-.002.266-.002 1.728 0 3.438.358 5.005 1.052zm-8.717 6.383l6.72-.105c-.813-4.73-6.115-3.806-6.72.105zM379.478 289.033a7.01 7.01 0 012.582 2.913c.619 1.29.94 2.698.94 4.12l-.002.137.002.142c0 1.923-.47 3.827-1.362 5.551a10.7 10.7 0 01-3.709 4.081 9.369 9.369 0 01-5.134 1.525H372.624a7.454 7.454 0 01-3.19-.717 5.496 5.496 0 01-2.252-2.064l-1.97 9.279H357l5.395-25.727h8.166l-.42 1.88c1.456-1.357 3.405-2.13 5.444-2.15.065-.003.132-.003.197-.003 1.31 0 2.594.359 3.696 1.033zm-9.492 4.625c4.504-2.834 4.77 4.783 1.967 6.44-3.82 2.26-5.83-4.008-1.967-6.44z" />
    <path fill="#304DB5"
      d="M428.03 222a8.96 8.96 0 00-7.558 4.163L392 271h21.728l5.205-8.278h15.934l.453 8.278H457l-2.898-49h-26.073zm5.04 16.61h.127l.47 12.458h-7.5l6.904-12.458zM301.539 222c-3.113.002-6.008 1.574-7.676 4.159L265 271h22.06l5.288-8.272h16.177l.458 8.272H331l-2.987-49h-26.474zm5.405 16.61h.14l.524 12.458h-8.355l7.69-12.458zM175.539 222c-3.113.002-6.01 1.574-7.674 4.159L139 271h22.06l5.286-8.272h16.18l.46 8.272H205l-3.033-49h-26.428zm5.406 16.61h.143l.52 12.458h-8.355l7.692-12.458zM124.46 258.868c-1.854-1.817-4.537-6.746-6.17-9.25-1.085-1.667-5.245-8.426-6.106-9.077l-8.933 9.659c1.578-3.734 18.883-28.681 22.515-35.203-3.861-.608-20.387-.421-24.77-.099-5.87.432-8.279 6.273-12.17 12.44-3.201 5.077-6.457 9.923-9.658 14.952-3.037 4.771-2.3 3.08.122 8.12 1.082 2.25 3.346 6.13 4.025 8.421L69.757 238.13 41 238.089c.843 2.283 3.662 5.945 5.039 8.156 1.697 2.722 3.367 5.214 5.16 8.028l10.246 15.708 28.755.017 6.005-9.15c2.464 2.28 4.114 6.62 6.332 9.152l28.748-.002 9.935-15.24c2.502-4.013 29.38-44.74 29.78-46.614-4.964 0-23.624-.556-26.93.518-4.073 1.32-8.714 10.492-12.033 15.463l-13.322 20.588c-.918 1.727.343 2.976 1.21 4.703 1.243 2.468 3.817 7.067 4.534 9.452" />
    <path fill="#304DB5"
      d="M41 233.94l28.407.06c10.358-27.37 40.02-37.26 67.707-36.407 5.427.168 10.682.925 15.764 1.85 6.3 1.143 10.372 2.94 14.122 3.69-.538-.849.004-.23-.792-.916l-2.683-1.612c-32.18-18.718-73.884-18.986-103.99 4.605-7.504 5.883-17.132 19.679-18.535 28.73" />
    <path fill="#C42D36"
      d="M337.673 288.306h-13.288l-.666 3.085h12.104l-1.284 6.262H322.44l-.664 3.085h13.665L334.159 307H312l5.172-25H339l-1.327 6.306" />
    <path fill="#C42D36"
      d="M347.342 288l1.224 4.436 3.586-4.436H361l-7.939 9.231L357.37 307h-8.939l-1.499-4.93-4.036 4.93H334l8.441-9.724-3.994-9.276h8.895M398.998 287.002l-.884 7.265-1.283-.09a4.225 4.225 0 00-.165-.005 6.057 6.057 0 00-3.42 1.067 4.223 4.223 0 00-1.817 2.733h-.043L389.703 307H382l3.719-19.628h7.703l-.488 2.546c1.48-1.85 3.67-2.918 5.973-2.918H399l-.002.002M422.807 306.08A15.102 15.102 0 01418 303.28l3.176-4.54a16.5 16.5 0 003.536 2.2 7.928 7.928 0 003.221.78c.878.003 1.314-.259 1.314-.777 0-.52.439-.78-.454-.551l-1.677-.688a29.917 29.917 0 01-3.038-1.329 6.993 6.993 0 01-2.177-1.79 4.3 4.3 0 01-.956-2.704l.003-.14v-.124c0-1.195.347-2.363.999-3.363a6.774 6.774 0 012.856-2.383 9.968 9.968 0 014.077-.872h.141c1.745.011 3.482.323 5.126.918a18.738 18.738 0 014.853 2.568l-3.356 4.494a22.732 22.732 0 00-3.493-1.972 7.176 7.176 0 00-2.724-.734h-.045c-.274 0-.541.08-.769.23a.64.64 0 00-.317.55c0 .274.182.505.545.69l1.86.823a49.7 49.7 0 013.038 1.331 6.81 6.81 0 012.131 1.742c.589.747.91 1.676.91 2.632l-.002.167c-.002.02 0 .044 0 .063a5.831 5.831 0 01-1.043 3.33 6.842 6.842 0 01-2.904 2.34 10.408 10.408 0 01-4.062.828c-.082 0-.167 0-.247-.002-.087-.002-.183.002-.274.002-1.848 0-3.69-.314-5.439-.92h-.002" />
    <path fill="#C42D36"
      d="M441.038 306.08A15.974 15.974 0 01436 303.28l3.327-4.54c1.133.88 2.38 1.62 3.704 2.2a8.64 8.64 0 003.375.78c.92.003 1.38-.259 1.38-.777 0-.52.456-.78-.477-.551l-1.759-.688a32.093 32.093 0 01-3.18-1.329 7.197 7.197 0 01-2.283-1.79 4.18 4.18 0 01-1.001-2.704c0-.046 0-.095.002-.14l-.002-.124a5.96 5.96 0 011.049-3.363 7.029 7.029 0 012.992-2.383A10.878 10.878 0 01447.4 287h.146a16.77 16.77 0 015.37.918c1.814.609 3.53 1.48 5.084 2.568l-3.516 4.494a24.256 24.256 0 00-3.659-1.972 7.822 7.822 0 00-2.851-.734h-.052a1.5 1.5 0 00-.804.23.639.639 0 00-.332.55c0 .274.189.505.569.69l1.95.823c1.265.49 2.328.934 3.181 1.331a7.085 7.085 0 012.235 1.742c.617.747.953 1.676.953 2.632 0 .055 0 .112-.002.167v.063a5.636 5.636 0 01-1.094 3.33 7.122 7.122 0 01-3.04 2.34 11.362 11.362 0 01-4.256.828c-.086 0-.173 0-.257-.002-.093-.002-.193.002-.287.002-1.94 0-3.868-.314-5.7-.92" />
    <path fill="#304DB5"
      d="M403 222h-21.878l-6.561 22.648L370.049 222h-21.876L334 271h21.83l6.607-22.737 4.604 22.692h21.876L403 222M254.44 222l-4.715 16.59h-10.96l4.717-16.545h-21.558L208 271h21.558l4.715-16.545h10.96L240.516 271h21.558L276 222h-21.56" />
  </g>
</svg>
