<svg width="118" height="36" viewBox="0 0 118 36" fill="none" xmlns="http://www.w3.org/2000/svg" class="inline-block"
  stroke-linecap="round" stroke-linejoin="round">
  <g filter="url(#filter0_i)">
    <path d="M21.7597 21.8125L18.2829 29L15.9651 20.9767L21.7597 21.8125Z" class="stroke-current" />
  </g>
  <path d="M31.2984 6L14.6539 19.8409L5 20.1744L31.2984 6Z" class="stroke-current" />
  <path d="M31.2985 6L26.4651 22.6705L15.9651 21.0035L31.2985 6Z" class="stroke-current" />
  <path
    d="M46.3281 13.54C46.8529 13.54 47.2887 13.5781 47.6357 13.6543L47.3438 17.2852C47.0306 17.2005 46.6497 17.1582 46.2012 17.1582C44.9655 17.1582 44.0007 17.4756 43.3066 18.1104C42.6211 18.7451 42.2783 19.6338 42.2783 20.7764V28H38.4062V13.8066H41.3389L41.9102 16.1934H42.1006C42.5407 15.3978 43.1331 14.7588 43.8779 14.2764C44.6312 13.7855 45.4479 13.54 46.3281 13.54ZM56.0908 16.2949C55.2699 16.2949 54.6266 16.5573 54.1611 17.082C53.6956 17.5983 53.429 18.3346 53.3613 19.291H58.7949C58.778 18.3346 58.5283 17.5983 58.0459 17.082C57.5635 16.5573 56.9118 16.2949 56.0908 16.2949ZM56.6367 28.2539C54.3516 28.2539 52.5658 27.6234 51.2793 26.3623C49.9928 25.1012 49.3496 23.3154 49.3496 21.0049C49.3496 18.6266 49.9421 16.79 51.127 15.4951C52.3203 14.1917 53.9665 13.54 56.0654 13.54C58.0713 13.54 59.6328 14.1113 60.75 15.2539C61.8672 16.3965 62.4258 17.9749 62.4258 19.9893V21.8682H53.2725C53.3148 22.9684 53.6406 23.8275 54.25 24.4453C54.8594 25.0632 55.7142 25.3721 56.8145 25.3721C57.6693 25.3721 58.4775 25.2832 59.2393 25.1055C60.001 24.9277 60.7965 24.6442 61.626 24.2549V27.251C60.9489 27.5895 60.2253 27.8392 59.4551 28C58.6849 28.1693 57.7454 28.2539 56.6367 28.2539ZM75.4766 23.7852C75.4766 25.2409 74.9688 26.3496 73.9531 27.1113C72.946 27.873 71.4352 28.2539 69.4209 28.2539C68.3883 28.2539 67.5081 28.182 66.7803 28.0381C66.0524 27.9027 65.3711 27.6995 64.7363 27.4287V24.2295C65.4557 24.568 66.264 24.8516 67.1611 25.0801C68.0667 25.3086 68.8623 25.4229 69.5479 25.4229C70.9528 25.4229 71.6553 25.0166 71.6553 24.2041C71.6553 23.8994 71.5622 23.654 71.376 23.4678C71.1898 23.2731 70.8682 23.0573 70.4111 22.8203C69.9541 22.5749 69.3447 22.2913 68.583 21.9697C67.4912 21.5127 66.6872 21.0895 66.1709 20.7002C65.6631 20.3109 65.2907 19.8665 65.0537 19.3672C64.8252 18.8594 64.7109 18.2373 64.7109 17.501C64.7109 16.2399 65.1976 15.2666 66.1709 14.5811C67.1527 13.887 68.5407 13.54 70.335 13.54C72.0446 13.54 73.7077 13.9124 75.3242 14.6572L74.1562 17.4502C73.4453 17.1455 72.7809 16.8958 72.1631 16.7012C71.5452 16.5065 70.9147 16.4092 70.2715 16.4092C69.1289 16.4092 68.5576 16.7181 68.5576 17.3359C68.5576 17.6829 68.7396 17.9834 69.1035 18.2373C69.4759 18.4912 70.2842 18.8678 71.5283 19.3672C72.637 19.8158 73.4495 20.2347 73.9658 20.624C74.4821 21.0133 74.863 21.4619 75.1084 21.9697C75.3538 22.4775 75.4766 23.0827 75.4766 23.7852ZM78.333 10.1377C78.333 8.87663 79.0355 8.24609 80.4404 8.24609C81.8454 8.24609 82.5479 8.87663 82.5479 10.1377C82.5479 10.7386 82.3701 11.2083 82.0146 11.5469C81.6676 11.877 81.1429 12.042 80.4404 12.042C79.0355 12.042 78.333 11.4072 78.333 10.1377ZM82.3701 28H78.498V13.8066H82.3701V28ZM90.165 20.2812L91.8535 18.123L95.8271 13.8066H100.194L94.5576 19.9639L100.537 28H96.0684L91.9805 22.249L90.3174 23.582V28H86.4453V8.24609H90.3174V17.0566L90.1143 20.2812H90.165ZM112.623 28L112.103 26.1846H111.899C111.485 26.8447 110.896 27.3568 110.135 27.7207C109.373 28.0762 108.506 28.2539 107.532 28.2539C105.865 28.2539 104.608 27.8096 103.762 26.9209C102.915 26.0238 102.492 24.7373 102.492 23.0615V13.8066H106.364V22.0967C106.364 23.1208 106.546 23.891 106.91 24.4072C107.274 24.915 107.854 25.1689 108.649 25.1689C109.733 25.1689 110.516 24.8092 110.998 24.0898C111.48 23.362 111.722 22.1602 111.722 20.4844V13.8066H115.594V28H112.623Z"
    class="fill-current" />
  <defs>
    <filter id="filter0_i" x="15.9651" y="20.9767" width="5.79457" height="8.02325" filterUnits="userSpaceOnUse"
      color-interpolation-filters="sRGB">
      <feFlood flood-opacity="0" result="BackgroundImageFix" />
      <feBlend mode="normal" in="SourceGraphic" in2="BackgroundImageFix" result="shape" />
      <feColorMatrix in="SourceAlpha" type="matrix" values="0 0 0 0 0 0 0 0 0 0 0 0 0 0 0 0 0 0 127 0"
        result="hardAlpha" />
      <feOffset dx="-4" dy="14" />
      <feGaussianBlur stdDeviation="2.5" />
      <feComposite in2="hardAlpha" operator="arithmetic" k2="-1" k3="1" />
      <feColorMatrix type="matrix" values="0 0 0 0 0 0 0 0 0 0 0 0 0 0 0 0 0 0 0.25 0" />
      <feBlend mode="normal" in2="shape" result="effect1_innerShadow" />
    </filter>
  </defs>
</svg>
