<svg xmlns="http://www.w3.org/2000/svg" xmlns:bx="https://boxy-svg.com" viewBox="0 0 24 24" width="24" height="24"
  fill="currentColor" stroke="none" stroke-linecap="round" stroke-linejoin="round">
  <path
    d="M 12.014 2 C 6.505 2 2.024 6.478 2.022 11.983 C 2.021 13.743 2.482 15.462 3.356 16.977 L 2 22 L 7.235 20.763 C 8.694 21.559 10.335 21.978 12.005 21.978 L 12.012 21.978 C 17.516 21.978 21.997 17.499 22 11.993 C 22.002 9.326 20.964 6.816 19.078 4.928 C 17.193 3.04 14.685 2.001 12.014 2 Z M 12.012 4 C 14.145 4.001 16.155 4.833 17.664 6.342 C 19.174 7.852 20.002 9.858 20 11.992 C 19.998 16.397 16.415 19.978 12.007 19.978 C 10.675 19.978 9.355 19.643 8.194 19.008 L 7.518 18.64 L 6.775 18.817 L 4.805 19.281 L 5.285 17.497 L 5.502 16.696 L 5.087 15.977 C 4.392 14.768 4.021 13.388 4.022 11.983 C 4.024 7.582 7.606 4 12.012 4 Z M 8.477 7.376 C 8.312 7.376 8.04 7.438 7.813 7.688 C 7.582 7.937 6.936 8.539 6.936 9.768 C 6.936 10.996 7.833 12.182 7.956 12.349 C 8.08 12.516 9.683 15.116 12.219 16.116 C 14.326 16.947 14.755 16.782 15.215 16.74 C 15.673 16.699 16.693 16.138 16.9 15.553 C 17.106 14.971 17.106 14.47 17.045 14.368 C 16.984 14.263 16.818 14.201 16.566 14.077 C 16.319 13.951 15.093 13.348 14.863 13.266 C 14.635 13.182 14.465 13.14 14.3 13.39 C 14.135 13.64 13.656 14.201 13.512 14.368 C 13.365 14.533 13.22 14.557 12.968 14.431 C 12.72 14.306 11.915 14.041 10.962 13.191 C 10.219 12.53 9.719 11.716 9.575 11.466 C 9.427 11.217 9.559 11.079 9.685 10.956 C 9.796 10.843 9.934 10.663 10.057 10.518 C 10.181 10.371 10.225 10.268 10.306 10.101 C 10.392 9.936 10.347 9.789 10.285 9.663 C 10.225 9.539 9.738 8.307 9.516 7.812 C 9.328 7.398 9.134 7.388 8.955 7.381 C 8.808 7.376 8.643 7.376 8.477 7.376 Z" />
</svg>
